{
	"asset":{
		"generator":"Khronos glTF Blender I/O v4.5.49",
		"version":"2.0"
	},
	"scene":0,
	"scenes":[
		{
			"name":"Scene",
			"nodes":[
				0,
				1,
				5,
				9,
				12,
				15,
				18,
				21,
				24,
				27,
				30,
				33,
				34,
				35,
				36,
				37,
				38,
				39,
				40,
				41,
				42,
				43,
				44,
				45,
				46,
				47,
				48,
				49,
				50,
				51,
				52,
				53
			]
		}
	],
	"nodes":[
		{
			"mesh":0,
			"name":"Buffer Object 13",
			"rotation":[
				-0.70710688829422,
				0,
				0,
				0.7071066498756409
			],
			"scale":[
				0.19920215010643005,
				0.19920217990875244,
				0.19920217990875244
			],
			"translation":[
				0.6785950064659119,
				-0.0345916822552681,
				-0.6230577230453491
			]
		},
		{
			"mesh":1,
			"name":"Buffer Object 12",
			"rotation":[
				-0.70710688829422,
				0,
				0,
				0.7071066498756409
			],
			"scale":[
				0.19920215010643005,
				0.19920217990875244,
				0.19920217990875244
			],
			"translation":[
				0.6785950064659119,
				-0.0345916822552681,
				-0.6230577230453491
			]
		},
		{
			"mesh":2,
			"name":"Merged Objects 11",
			"rotation":[
				0,
				0,
				-0.5638821125030518,
				0.8258553147315979
			],
			"translation":[
				-2.507875442504883,
				-0.020316123962402344,
				0
			]
		},
		{
			"mesh":3,
			"name":"Merged Objects 4",
			"rotation":[
				0,
				0,
				-0.5638821125030518,
				0.8258553147315979
			],
			"translation":[
				-4.056943416595459,
				-1.6015706062316895,
				0.13507701456546783
			]
		},
		{
			"mesh":4,
			"name":"Merged Objects 7",
			"translation":[
				-0.13668440282344818,
				0.05890321731567383,
				0.6788424849510193
			]
		},
		{
			"children":[
				2,
				3,
				4
			],
			"name":"Group 10",
			"rotation":[
				-0.46876057982444763,
				-0.5293991565704346,
				-0.5293992161750793,
				0.46876057982444763
			],
			"scale":[
				0.19920215010643005,
				0.19920215010643005,
				0.19920215010643005
			],
			"translation":[
				6.361167907714844,
				-0.04101688042283058,
				-8.856974601745605
			]
		},
		{
			"mesh":5,
			"name":"Merged Objects 11.001",
			"rotation":[
				0,
				0,
				-0.5638821721076965,
				0.8258553147315979
			],
			"translation":[
				-2.507870674133301,
				-0.020319225266575813,
				0
			]
		},
		{
			"mesh":6,
			"name":"Merged Objects 4.001",
			"rotation":[
				0,
				0,
				-0.5638821721076965,
				0.8258553147315979
			],
			"translation":[
				-4.056939125061035,
				-1.6015663146972656,
				0.13507702946662903
			]
		},
		{
			"mesh":7,
			"name":"Merged Objects 7.001",
			"translation":[
				-0.13668252527713776,
				0.05890560522675514,
				0.6788424253463745
			]
		},
		{
			"children":[
				6,
				7,
				8
			],
			"name":"Group 4",
			"rotation":[
				-0.44564351439476013,
				0.5490007400512695,
				0.5490007996559143,
				0.44564351439476013
			],
			"scale":[
				0.19920215010643005,
				0.19920215010643005,
				0.19920215010643005
			],
			"translation":[
				9.203145027160645,
				-0.04101688042283058,
				-3.9549202919006348
			]
		},
		{
			"mesh":8,
			"name":"Merged Objects 4.002",
			"translation":[
				1.2074542045593262,
				-2.7409350872039795,
				0.13507702946662903
			]
		},
		{
			"mesh":9,
			"name":"Merged Objects 7.002",
			"translation":[
				0.14386509358882904,
				-0.6591782569885254,
				0.6788424849510193
			]
		},
		{
			"children":[
				10,
				11
			],
			"name":"Group 9",
			"rotation":[
				-0.17665542662143707,
				0.6846845149993896,
				0.6846845746040344,
				0.17665542662143707
			],
			"scale":[
				0.19920216500759125,
				0.19920216500759125,
				0.19920215010643005
			],
			"translation":[
				-1.3042571544647217,
				-0.04101688042283058,
				-7.019881725311279
			]
		},
		{
			"mesh":10,
			"name":"Merged Objects 4.003",
			"translation":[
				0.908759593963623,
				-2.0184473991394043,
				0.13507704436779022
			]
		},
		{
			"mesh":11,
			"name":"Merged Objects 7.003",
			"translation":[
				-0.13667964935302734,
				0.05890633538365364,
				0.6788425445556641
			]
		},
		{
			"children":[
				13,
				14
			],
			"name":"Group 8",
			"rotation":[
				-0.11088227480649948,
				-0.6983588933944702,
				-0.698358952999115,
				0.11088228970766068
			],
			"scale":[
				0.19920216500759125,
				0.19920215010643005,
				0.19920215010643005
			],
			"translation":[
				1.844954490661621,
				-0.04101688042283058,
				-7.616428852081299
			]
		},
		{
			"mesh":12,
			"name":"Merged Objects 4.004",
			"translation":[
				0.9087557792663574,
				-2.018454074859619,
				0.13507701456546783
			]
		},
		{
			"mesh":13,
			"name":"Merged Objects 7.004",
			"translation":[
				-0.13668608665466309,
				0.05890488624572754,
				0.6788424253463745
			]
		},
		{
			"children":[
				16,
				17
			],
			"name":"Group 7",
			"rotation":[
				-0.521287202835083,
				0.4777652621269226,
				0.4777652621269226,
				0.521287202835083
			],
			"scale":[
				0.19920213520526886,
				0.19920213520526886,
				0.19920215010643005
			],
			"translation":[
				8.871992111206055,
				-0.04101688042283058,
				-9.04764461517334
			]
		},
		{
			"mesh":14,
			"name":"Merged Objects 4.005",
			"translation":[
				0.9087567329406738,
				-2.0184547901153564,
				0.13507701456546783
			]
		},
		{
			"mesh":15,
			"name":"Merged Objects 7.005",
			"translation":[
				-0.13668155670166016,
				0.05890035629272461,
				0.6788424253463745
			]
		},
		{
			"children":[
				19,
				20
			],
			"name":"Group 6",
			"rotation":[
				-0.521287202835083,
				0.4777652621269226,
				0.4777652621269226,
				0.521287202835083
			],
			"scale":[
				0.19920213520526886,
				0.19920213520526886,
				0.19920215010643005
			],
			"translation":[
				8.56950855255127,
				-0.04101688042283058,
				-7.175127983093262
			]
		},
		{
			"mesh":16,
			"name":"Merged Objects 4.006",
			"translation":[
				0.9087543487548828,
				-2.018449544906616,
				0.13507702946662903
			]
		},
		{
			"mesh":17,
			"name":"Merged Objects 7.006",
			"translation":[
				-0.13668394088745117,
				0.058905601501464844,
				0.6788424253463745
			]
		},
		{
			"children":[
				22,
				23
			],
			"name":"Group 5",
			"rotation":[
				-0.521287202835083,
				0.4777652621269226,
				0.4777652621269226,
				0.521287202835083
			],
			"scale":[
				0.19920213520526886,
				0.19920213520526886,
				0.19920215010643005
			],
			"translation":[
				9.498564720153809,
				-0.04101688042283058,
				-4.784067630767822
			]
		},
		{
			"mesh":18,
			"name":"Merged Objects 4.007",
			"translation":[
				0.9087581634521484,
				-2.018448829650879,
				0.13507701456546783
			]
		},
		{
			"mesh":19,
			"name":"Merged Objects 7.007",
			"translation":[
				-0.13668248057365417,
				0.058903682976961136,
				0.6788424253463745
			]
		},
		{
			"children":[
				25,
				26
			],
			"name":"Group 3",
			"rotation":[
				-0.5918139219284058,
				-0.3869835436344147,
				-0.3869835436344147,
				0.5918139815330505
			],
			"scale":[
				0.19920215010643005,
				0.19920215010643005,
				0.19920215010643005
			],
			"translation":[
				6.351295471191406,
				-0.04101688042283058,
				-4.596815586090088
			]
		},
		{
			"mesh":20,
			"name":"Merged Objects 4.008",
			"translation":[
				0.9087553024291992,
				-2.018451690673828,
				0.13507705926895142
			]
		},
		{
			"mesh":21,
			"name":"Merged Objects 7.008",
			"translation":[
				-0.13668441772460938,
				0.05890076979994774,
				0.6788423657417297
			]
		},
		{
			"children":[
				28,
				29
			],
			"name":"Group 2",
			"rotation":[
				-0.70710688829422,
				0,
				0,
				0.7071066498756409
			],
			"scale":[
				0.19920215010643005,
				0.19920217990875244,
				0.19920217990875244
			],
			"translation":[
				3.0754129886627197,
				-0.04101688042283058,
				-5.949479579925537
			]
		},
		{
			"mesh":22,
			"name":"Merged Objects 4.009",
			"translation":[
				0.9087567329406738,
				-2.018451690673828,
				0.13507705926895142
			]
		},
		{
			"mesh":23,
			"name":"Merged Objects 7.009",
			"translation":[
				-0.13668298721313477,
				0.058898862451314926,
				0.6788424253463745
			]
		},
		{
			"children":[
				31,
				32
			],
			"name":"Group",
			"rotation":[
				-0.70710688829422,
				0,
				0,
				0.7071066498756409
			],
			"scale":[
				0.19920215010643005,
				0.19920217990875244,
				0.19920217990875244
			],
			"translation":[
				0.4067067801952362,
				-0.04101688042283058,
				-5.965301990509033
			]
		},
		{
			"mesh":24,
			"name":"Buffer Object 1",
			"rotation":[
				-0.70710688829422,
				0,
				0,
				0.7071066498756409
			],
			"scale":[
				0.19920215010643005,
				0.19920217990875244,
				0.19920217990875244
			],
			"translation":[
				-5.666262149810791,
				0.3321855068206787,
				-6.521887302398682
			]
		},
		{
			"mesh":25,
			"name":"Buffer Object 3",
			"rotation":[
				-0.70710688829422,
				0,
				0,
				0.7071066498756409
			],
			"scale":[
				0.19920215010643005,
				0.19920217990875244,
				0.19920217990875244
			],
			"translation":[
				-5.839651584625244,
				-0.0345916822552681,
				-6.52188777923584
			]
		},
		{
			"mesh":26,
			"name":"Buffer Object 2",
			"rotation":[
				-0.70710688829422,
				0,
				0,
				0.7071066498756409
			],
			"scale":[
				0.19920215010643005,
				0.19920217990875244,
				0.19920217990875244
			],
			"translation":[
				-5.218509674072266,
				-0.0345916822552681,
				-4.161831855773926
			]
		},
		{
			"mesh":27,
			"name":"Buffer Object",
			"rotation":[
				-0.70710688829422,
				0,
				0,
				0.7071066498756409
			],
			"scale":[
				0.19920215010643005,
				0.19920217990875244,
				0.19920217990875244
			],
			"translation":[
				0.6785950064659119,
				-0.0345916822552681,
				-0.6230577230453491
			]
		},
		{
			"mesh":28,
			"name":"Buffer Object 6",
			"rotation":[
				-0.70710688829422,
				0,
				0,
				0.7071066498756409
			],
			"scale":[
				0.19920215010643005,
				0.19920217990875244,
				0.19920217990875244
			],
			"translation":[
				0.3002607822418213,
				0.27613261342048645,
				-6.616017818450928
			]
		},
		{
			"mesh":29,
			"name":"Buffer Object 5",
			"rotation":[
				-0.70710688829422,
				0,
				0,
				0.7071066498756409
			],
			"scale":[
				0.19920215010643005,
				0.19920217990875244,
				0.19920217990875244
			],
			"translation":[
				0.6785950064659119,
				-0.0345916822552681,
				-0.6230577230453491
			]
		},
		{
			"mesh":30,
			"name":"Merged Objects 1",
			"rotation":[
				-0.70710688829422,
				0,
				0,
				0.7071066498756409
			],
			"scale":[
				0.19920215010643005,
				0.19920217990875244,
				0.19920217990875244
			],
			"translation":[
				6.067919731140137,
				0.4363365173339844,
				-5.614704132080078
			]
		},
		{
			"mesh":31,
			"name":"Merged Objects 2",
			"rotation":[
				-0.70710688829422,
				0,
				0,
				0.7071066498756409
			],
			"scale":[
				0.19920215010643005,
				0.19920217990875244,
				0.19920217990875244
			],
			"translation":[
				8.190529823303223,
				-0.0345916822552681,
				-3.274705410003662
			]
		},
		{
			"mesh":32,
			"name":"Merged Objects 3",
			"rotation":[
				-0.70710688829422,
				0,
				0,
				0.7071066498756409
			],
			"scale":[
				0.19920215010643005,
				0.19920217990875244,
				0.19920217990875244
			],
			"translation":[
				6.40363073348999,
				-0.0345916822552681,
				-7.156517505645752
			]
		},
		{
			"mesh":33,
			"name":"Merged Objects 9",
			"rotation":[
				-0.70710688829422,
				0,
				0,
				0.7071066498756409
			],
			"scale":[
				0.0010000000474974513,
				0.0010000001639127731,
				0.0010000001639127731
			],
			"translation":[
				4.382003307342529,
				-0.0345916822552681,
				-7.043025016784668
			]
		},
		{
			"mesh":34,
			"name":"Merged Objects 10",
			"rotation":[
				-0.70710688829422,
				0,
				0,
				0.7071066498756409
			],
			"scale":[
				0.0010000000474974513,
				0.0010000001639127731,
				0.0010000001639127731
			],
			"translation":[
				8.007981300354004,
				-0.0345916822552681,
				-9.1774263381958
			]
		},
		{
			"mesh":35,
			"name":"Merged Objects 8",
			"rotation":[
				-0.70710688829422,
				0,
				0,
				0.7071066498756409
			],
			"scale":[
				0.0010000000474974513,
				0.0010000001639127731,
				0.0010000001639127731
			],
			"translation":[
				5.823854446411133,
				-0.0345916822552681,
				-6.834103584289551
			]
		},
		{
			"mesh":36,
			"name":"Buffer Object 11",
			"rotation":[
				-0.70710688829422,
				0,
				0,
				0.7071066498756409
			],
			"scale":[
				0.19920215010643005,
				0.19920217990875244,
				0.19920217990875244
			],
			"translation":[
				0.6785950064659119,
				-0.0345916822552681,
				-0.6230577230453491
			]
		},
		{
			"mesh":37,
			"name":"Buffer Object 10",
			"rotation":[
				-0.70710688829422,
				0,
				0,
				0.7071066498756409
			],
			"scale":[
				0.19920215010643005,
				0.19920217990875244,
				0.19920217990875244
			],
			"translation":[
				0.6785950064659119,
				-0.0345916822552681,
				-0.6230577230453491
			]
		},
		{
			"mesh":38,
			"name":"Buffer Object 9",
			"rotation":[
				-0.70710688829422,
				0,
				0,
				0.7071066498756409
			],
			"scale":[
				0.19920215010643005,
				0.19920217990875244,
				0.19920217990875244
			],
			"translation":[
				0.6785950064659119,
				-0.0345916822552681,
				-0.6230577230453491
			]
		},
		{
			"mesh":39,
			"name":"Buffer Object 8",
			"rotation":[
				-0.70710688829422,
				0,
				0,
				0.7071066498756409
			],
			"scale":[
				0.19920215010643005,
				0.19920217990875244,
				0.19920217990875244
			],
			"translation":[
				0.6785950064659119,
				-0.0345916822552681,
				-0.6230577230453491
			]
		},
		{
			"mesh":40,
			"name":"Buffer Object 7",
			"rotation":[
				-0.70710688829422,
				0,
				0,
				0.7071066498756409
			],
			"scale":[
				0.19920215010643005,
				0.19920217990875244,
				0.19920217990875244
			],
			"translation":[
				0.6785950064659119,
				-0.0345916822552681,
				-0.6230577230453491
			]
		},
		{
			"mesh":41,
			"name":"Buffer Object 4",
			"rotation":[
				-0.70710688829422,
				0,
				0,
				0.7071066498756409
			],
			"scale":[
				0.19920215010643005,
				0.19920217990875244,
				0.19920217990875244
			],
			"translation":[
				0.6785950064659119,
				-0.0345916822552681,
				-0.6230577230453491
			]
		},
		{
			"name":"Light",
			"rotation":[
				0.16907577216625214,
				0.7558803558349609,
				-0.27217137813568115,
				0.5709474682807922
			],
			"translation":[
				4.076245307922363,
				5.903861999511719,
				-1.0054539442062378
			]
		},
		{
			"name":"Camera",
			"rotation":[
				0.483536034822464,
				0.33687159419059753,
				-0.20870360732078552,
				0.7804827094078064
			],
			"translation":[
				7.358891487121582,
				4.958309173583984,
				6.925790786743164
			]
		}
	],
	"materials":[
		{
			"name":"Soft Royal",
			"pbrMetallicRoughness":{
				"baseColorFactor":[
					0.47044023871421814,
					0.47044023871421814,
					0.47044023871421814,
					1
				],
				"metallicFactor":0,
				"roughnessFactor":0.20000000298023224
			}
		},
		{
			"name":"Brimstone",
			"pbrMetallicRoughness":{
				"baseColorFactor":[
					0.3488648235797882,
					0.21576440334320068,
					0.10615606606006622,
					1
				],
				"metallicFactor":0,
				"roughnessFactor":0.20000000298023224
			}
		},
		{
			"name":"BIKFTexture 10",
			"pbrMetallicRoughness":{
				"baseColorTexture":{
					"index":0
				},
				"metallicFactor":0,
				"roughnessFactor":0.20000000298023224
			}
		},
		{
			"name":"Haiti 10",
			"pbrMetallicRoughness":{
				"baseColorFactor":[
					0,
					0,
					0,
					1
				],
				"metallicFactor":0,
				"roughnessFactor":0.20000000298023224
			}
		},
		{
			"name":"BIKFTexture 11",
			"pbrMetallicRoughness":{
				"baseColorTexture":{
					"index":1
				},
				"metallicFactor":0,
				"roughnessFactor":0.20000000298023224
			}
		},
		{
			"name":"BIKFTexture 4",
			"pbrMetallicRoughness":{
				"baseColorTexture":{
					"index":2
				},
				"metallicFactor":0,
				"roughnessFactor":0.20000000298023224
			}
		},
		{
			"name":"Haiti 4",
			"pbrMetallicRoughness":{
				"baseColorFactor":[
					0,
					0,
					0,
					1
				],
				"metallicFactor":0,
				"roughnessFactor":0.20000000298023224
			}
		},
		{
			"name":"Haiti 9",
			"pbrMetallicRoughness":{
				"baseColorFactor":[
					0,
					0,
					0,
					1
				],
				"metallicFactor":0,
				"roughnessFactor":0.20000000298023224
			}
		},
		{
			"name":"BIKFTexture 9",
			"pbrMetallicRoughness":{
				"baseColorTexture":{
					"index":3
				},
				"metallicFactor":0,
				"roughnessFactor":0.20000000298023224
			}
		},
		{
			"name":"Haiti 8",
			"pbrMetallicRoughness":{
				"baseColorFactor":[
					0,
					0,
					0,
					1
				],
				"metallicFactor":0,
				"roughnessFactor":0.20000000298023224
			}
		},
		{
			"name":"BIKFTexture 8",
			"pbrMetallicRoughness":{
				"baseColorTexture":{
					"index":4
				},
				"metallicFactor":0,
				"roughnessFactor":0.20000000298023224
			}
		},
		{
			"name":"Haiti 7",
			"pbrMetallicRoughness":{
				"baseColorFactor":[
					0,
					0,
					0,
					1
				],
				"metallicFactor":0,
				"roughnessFactor":0.20000000298023224
			}
		},
		{
			"name":"BIKFTexture 7",
			"pbrMetallicRoughness":{
				"baseColorTexture":{
					"index":5
				},
				"metallicFactor":0,
				"roughnessFactor":0.20000000298023224
			}
		},
		{
			"name":"Haiti 6",
			"pbrMetallicRoughness":{
				"baseColorFactor":[
					0,
					0,
					0,
					1
				],
				"metallicFactor":0,
				"roughnessFactor":0.20000000298023224
			}
		},
		{
			"name":"BIKFTexture 6",
			"pbrMetallicRoughness":{
				"baseColorTexture":{
					"index":6
				},
				"metallicFactor":0,
				"roughnessFactor":0.20000000298023224
			}
		},
		{
			"name":"Haiti 5",
			"pbrMetallicRoughness":{
				"baseColorFactor":[
					0,
					0,
					0,
					1
				],
				"metallicFactor":0,
				"roughnessFactor":0.20000000298023224
			}
		},
		{
			"name":"BIKFTexture 5",
			"pbrMetallicRoughness":{
				"baseColorTexture":{
					"index":7
				},
				"metallicFactor":0,
				"roughnessFactor":0.20000000298023224
			}
		},
		{
			"name":"Haiti 3",
			"pbrMetallicRoughness":{
				"baseColorFactor":[
					0,
					0,
					0,
					1
				],
				"metallicFactor":0,
				"roughnessFactor":0.20000000298023224
			}
		},
		{
			"name":"BIKFTexture 3",
			"pbrMetallicRoughness":{
				"baseColorTexture":{
					"index":8
				},
				"metallicFactor":0,
				"roughnessFactor":0.20000000298023224
			}
		},
		{
			"name":"Haiti 2",
			"pbrMetallicRoughness":{
				"baseColorFactor":[
					0,
					0,
					0,
					1
				],
				"metallicFactor":0,
				"roughnessFactor":0.20000000298023224
			}
		},
		{
			"name":"BIKFTexture 2",
			"pbrMetallicRoughness":{
				"baseColorTexture":{
					"index":9
				},
				"metallicFactor":0,
				"roughnessFactor":0.20000000298023224
			}
		},
		{
			"name":"Haiti",
			"pbrMetallicRoughness":{
				"baseColorFactor":[
					0,
					0,
					0,
					1
				],
				"metallicFactor":0,
				"roughnessFactor":0.20000000298023224
			}
		},
		{
			"name":"BIKFTexture",
			"pbrMetallicRoughness":{
				"baseColorTexture":{
					"index":10
				},
				"metallicFactor":0,
				"roughnessFactor":0.20000000298023224
			}
		},
		{
			"name":"Quiet Passion",
			"pbrMetallicRoughness":{
				"baseColorFactor":[
					1,
					0.02899118699133396,
					0,
					1
				],
				"metallicFactor":0,
				"roughnessFactor":0.20000000298023224
			}
		},
		{
			"name":"Warm Welcome",
			"pbrMetallicRoughness":{
				"baseColorFactor":[
					0.2195197194814682,
					0.2195197194814682,
					0.2195197194814682,
					1
				],
				"metallicFactor":0,
				"roughnessFactor":0.20000000298023224
			}
		},
		{
			"name":"Ancient",
			"pbrMetallicRoughness":{
				"baseColorFactor":[
					0.5795466303825378,
					0.5795466303825378,
					0.5795466303825378,
					1
				],
				"metallicFactor":0,
				"roughnessFactor":0.20000000298023224
			}
		},
		{
			"name":"Axel",
			"pbrMetallicRoughness":{
				"baseColorFactor":[
					0.867023766040802,
					0.867023766040802,
					0.867023766040802,
					1
				],
				"metallicFactor":0,
				"roughnessFactor":0.20000000298023224
			}
		},
		{
			"name":"Lonely Road",
			"pbrMetallicRoughness":{
				"baseColorFactor":[
					0.45907989144325256,
					0.45907989144325256,
					0.45907989144325256,
					1
				],
				"metallicFactor":0,
				"roughnessFactor":0.20000000298023224
			}
		},
		{
			"name":"Kimono",
			"pbrMetallicRoughness":{
				"baseColorFactor":[
					0.7154654264450073,
					0.28445205092430115,
					0.20835965871810913,
					1
				],
				"metallicFactor":0,
				"roughnessFactor":0.20000000298023224
			}
		},
		{
			"name":"Melanie",
			"pbrMetallicRoughness":{
				"baseColorFactor":[
					0.6523700952529907,
					0.6523700952529907,
					0.6661169528961182,
					1
				],
				"metallicFactor":0,
				"roughnessFactor":0.20000000298023224
			}
		},
		{
			"name":"Bumblebee",
			"pbrMetallicRoughness":{
				"metallicFactor":0,
				"roughnessFactor":0.20000000298023224
			}
		},
		{
			"name":"Goodbye Mist",
			"pbrMetallicRoughness":{
				"metallicFactor":0,
				"roughnessFactor":0.20000000298023224
			}
		},
		{
			"name":"Vera",
			"pbrMetallicRoughness":{
				"metallicFactor":0,
				"roughnessFactor":0.20000000298023224
			}
		}
	],
	"meshes":[
		{
			"name":"Mesh_0",
			"primitives":[
				{
					"attributes":{
						"POSITION":0,
						"NORMAL":1
					},
					"indices":2,
					"material":0
				}
			]
		},
		{
			"name":"Mesh_1",
			"primitives":[
				{
					"attributes":{
						"POSITION":3,
						"NORMAL":4
					},
					"indices":5,
					"material":1
				}
			]
		},
		{
			"name":"Mesh_3",
			"primitives":[
				{
					"attributes":{
						"POSITION":6,
						"NORMAL":7,
						"TEXCOORD_0":8
					},
					"indices":9,
					"material":2
				}
			]
		},
		{
			"name":"Mesh_2",
			"primitives":[
				{
					"attributes":{
						"POSITION":10,
						"NORMAL":11
					},
					"indices":12,
					"material":3
				}
			]
		},
		{
			"name":"Mesh_4",
			"primitives":[
				{
					"attributes":{
						"POSITION":13,
						"NORMAL":14,
						"TEXCOORD_0":15
					},
					"indices":16,
					"material":4
				}
			]
		},
		{
			"name":"Mesh_6",
			"primitives":[
				{
					"attributes":{
						"POSITION":17,
						"NORMAL":18,
						"TEXCOORD_0":19
					},
					"indices":9,
					"material":5
				}
			]
		},
		{
			"name":"Mesh_5",
			"primitives":[
				{
					"attributes":{
						"POSITION":20,
						"NORMAL":21
					},
					"indices":12,
					"material":6
				}
			]
		},
		{
			"name":"Mesh_7",
			"primitives":[
				{
					"attributes":{
						"POSITION":22,
						"NORMAL":23,
						"TEXCOORD_0":24
					},
					"indices":16,
					"material":5
				}
			]
		},
		{
			"name":"Mesh_8",
			"primitives":[
				{
					"attributes":{
						"POSITION":25,
						"NORMAL":26
					},
					"indices":12,
					"material":7
				}
			]
		},
		{
			"name":"Mesh_9",
			"primitives":[
				{
					"attributes":{
						"POSITION":27,
						"NORMAL":28,
						"TEXCOORD_0":29
					},
					"indices":30,
					"material":8
				}
			]
		},
		{
			"name":"Mesh_10",
			"primitives":[
				{
					"attributes":{
						"POSITION":31,
						"NORMAL":32
					},
					"indices":12,
					"material":9
				}
			]
		},
		{
			"name":"Mesh_11",
			"primitives":[
				{
					"attributes":{
						"POSITION":33,
						"NORMAL":34,
						"TEXCOORD_0":35
					},
					"indices":36,
					"material":10
				}
			]
		},
		{
			"name":"Mesh_12",
			"primitives":[
				{
					"attributes":{
						"POSITION":37,
						"NORMAL":38
					},
					"indices":12,
					"material":11
				}
			]
		},
		{
			"name":"Mesh_13",
			"primitives":[
				{
					"attributes":{
						"POSITION":39,
						"NORMAL":40,
						"TEXCOORD_0":41
					},
					"indices":36,
					"material":12
				}
			]
		},
		{
			"name":"Mesh_14",
			"primitives":[
				{
					"attributes":{
						"POSITION":42,
						"NORMAL":43
					},
					"indices":12,
					"material":13
				}
			]
		},
		{
			"name":"Mesh_15",
			"primitives":[
				{
					"attributes":{
						"POSITION":44,
						"NORMAL":45,
						"TEXCOORD_0":46
					},
					"indices":36,
					"material":14
				}
			]
		},
		{
			"name":"Mesh_16",
			"primitives":[
				{
					"attributes":{
						"POSITION":47,
						"NORMAL":48
					},
					"indices":12,
					"material":15
				}
			]
		},
		{
			"name":"Mesh_17",
			"primitives":[
				{
					"attributes":{
						"POSITION":49,
						"NORMAL":50,
						"TEXCOORD_0":51
					},
					"indices":36,
					"material":16
				}
			]
		},
		{
			"name":"Mesh_18",
			"primitives":[
				{
					"attributes":{
						"POSITION":52,
						"NORMAL":53
					},
					"indices":12,
					"material":17
				}
			]
		},
		{
			"name":"Mesh_19",
			"primitives":[
				{
					"attributes":{
						"POSITION":54,
						"NORMAL":55,
						"TEXCOORD_0":56
					},
					"indices":36,
					"material":18
				}
			]
		},
		{
			"name":"Mesh_20",
			"primitives":[
				{
					"attributes":{
						"POSITION":57,
						"NORMAL":58
					},
					"indices":12,
					"material":19
				}
			]
		},
		{
			"name":"Mesh_21",
			"primitives":[
				{
					"attributes":{
						"POSITION":59,
						"NORMAL":60,
						"TEXCOORD_0":61
					},
					"indices":62,
					"material":20
				}
			]
		},
		{
			"name":"Mesh_22",
			"primitives":[
				{
					"attributes":{
						"POSITION":63,
						"NORMAL":64
					},
					"indices":12,
					"material":21
				}
			]
		},
		{
			"name":"Mesh_23",
			"primitives":[
				{
					"attributes":{
						"POSITION":65,
						"NORMAL":66,
						"TEXCOORD_0":67
					},
					"indices":62,
					"material":22
				}
			]
		},
		{
			"name":"Mesh_24",
			"primitives":[
				{
					"attributes":{
						"POSITION":68,
						"NORMAL":69
					},
					"indices":70,
					"material":23
				}
			]
		},
		{
			"name":"Mesh_25",
			"primitives":[
				{
					"attributes":{
						"POSITION":71,
						"NORMAL":72,
						"TEXCOORD_0":73
					},
					"indices":74,
					"material":22
				}
			]
		},
		{
			"name":"Mesh_26",
			"primitives":[
				{
					"attributes":{
						"POSITION":75,
						"NORMAL":76
					},
					"indices":77,
					"material":24
				}
			]
		},
		{
			"name":"Mesh_27",
			"primitives":[
				{
					"attributes":{
						"POSITION":78,
						"NORMAL":79
					},
					"indices":80,
					"material":25
				}
			]
		},
		{
			"name":"Mesh_28",
			"primitives":[
				{
					"attributes":{
						"POSITION":81,
						"NORMAL":82
					},
					"indices":83,
					"material":23
				}
			]
		},
		{
			"name":"Mesh_29",
			"primitives":[
				{
					"attributes":{
						"POSITION":84,
						"NORMAL":85
					},
					"indices":86,
					"material":26
				}
			]
		},
		{
			"name":"Mesh_30",
			"primitives":[
				{
					"attributes":{
						"POSITION":87,
						"NORMAL":88
					},
					"indices":89,
					"material":27
				}
			]
		},
		{
			"name":"Mesh_31",
			"primitives":[
				{
					"attributes":{
						"POSITION":90,
						"NORMAL":91,
						"TEXCOORD_0":92
					},
					"indices":93,
					"material":22
				}
			]
		},
		{
			"name":"Mesh_32",
			"primitives":[
				{
					"attributes":{
						"POSITION":94,
						"NORMAL":95
					},
					"indices":96,
					"material":28
				}
			]
		},
		{
			"name":"Mesh_33",
			"primitives":[
				{
					"attributes":{
						"POSITION":97,
						"NORMAL":98,
						"TEXCOORD_0":99
					},
					"indices":100,
					"material":22
				}
			]
		},
		{
			"name":"Mesh_34",
			"primitives":[
				{
					"attributes":{
						"POSITION":101,
						"NORMAL":102,
						"TEXCOORD_0":103
					},
					"indices":104,
					"material":22
				}
			]
		},
		{
			"name":"Mesh_35",
			"primitives":[
				{
					"attributes":{
						"POSITION":105,
						"NORMAL":106,
						"TEXCOORD_0":107
					},
					"indices":108,
					"material":22
				}
			]
		},
		{
			"name":"Mesh_36",
			"primitives":[
				{
					"attributes":{
						"POSITION":109,
						"NORMAL":110
					},
					"indices":111,
					"material":29
				}
			]
		},
		{
			"name":"Mesh_37",
			"primitives":[
				{
					"attributes":{
						"POSITION":112,
						"NORMAL":113
					},
					"indices":114,
					"material":30
				}
			]
		},
		{
			"name":"Mesh_38",
			"primitives":[
				{
					"attributes":{
						"POSITION":115,
						"NORMAL":116
					},
					"indices":117,
					"material":29
				}
			]
		},
		{
			"name":"Mesh_39",
			"primitives":[
				{
					"attributes":{
						"POSITION":118,
						"NORMAL":119
					},
					"indices":120,
					"material":31
				}
			]
		},
		{
			"name":"Mesh_40",
			"primitives":[
				{
					"attributes":{
						"POSITION":121,
						"NORMAL":122
					},
					"indices":123,
					"material":29
				}
			]
		},
		{
			"name":"Mesh_41",
			"primitives":[
				{
					"attributes":{
						"POSITION":124,
						"NORMAL":125
					},
					"indices":126,
					"material":32
				}
			]
		}
	],
	"textures":[
		{
			"sampler":0,
			"source":0
		},
		{
			"sampler":0,
			"source":0
		},
		{
			"sampler":0,
			"source":0
		},
		{
			"sampler":0,
			"source":0
		},
		{
			"sampler":0,
			"source":0
		},
		{
			"sampler":0,
			"source":0
		},
		{
			"sampler":0,
			"source":0
		},
		{
			"sampler":0,
			"source":0
		},
		{
			"sampler":0,
			"source":0
		},
		{
			"sampler":0,
			"source":0
		},
		{
			"sampler":0,
			"source":0
		}
	],
	"images":[
		{
			"mimeType":"image/jpeg",
			"name":"costume1",
			"uri":"costume1.jpg"
		}
	],
	"accessors":[
		{
			"bufferView":0,
			"componentType":5126,
			"count":721,
			"max":[
				-54.60015869140625,
				34.380638122558594,
				1.9363714456558228
			],
			"min":[
				-57.06122970581055,
				31.587566375732422,
				-0.04537298530340195
			],
			"type":"VEC3"
		},
		{
			"bufferView":1,
			"componentType":5126,
			"count":721,
			"type":"VEC3"
		},
		{
			"bufferView":2,
			"componentType":5123,
			"count":1278,
			"type":"SCALAR"
		},
		{
			"bufferView":3,
			"componentType":5126,
			"count":56,
			"max":[
				-54.56092834472656,
				35.063541412353516,
				0.5065171718597412
			],
			"min":[
				-57.02199935913086,
				32.60247039794922,
				0
			],
			"type":"VEC3"
		},
		{
			"bufferView":4,
			"componentType":5126,
			"count":56,
			"type":"VEC3"
		},
		{
			"bufferView":5,
			"componentType":5123,
			"count":192,
			"type":"SCALAR"
		},
		{
			"bufferView":6,
			"componentType":5126,
			"count":242,
			"max":[
				1.2764233350753784,
				2.1104984283447266,
				1.5464673042297363
			],
			"min":[
				-1.549789309501648,
				-2.532583236694336,
				0.6788424253463745
			],
			"type":"VEC3"
		},
		{
			"bufferView":7,
			"componentType":5126,
			"count":242,
			"type":"VEC3"
		},
		{
			"bufferView":8,
			"componentType":5126,
			"count":242,
			"type":"VEC2"
		},
		{
			"bufferView":9,
			"componentType":5123,
			"count":342,
			"type":"SCALAR"
		},
		{
			"bufferView":10,
			"componentType":5126,
			"count":439,
			"max":[
				0.6410323977470398,
				0.6319399476051331,
				1.2199774980545044
			],
			"min":[
				-0.6410323977470398,
				-0.6319399476051331,
				0
			],
			"type":"VEC3"
		},
		{
			"bufferView":11,
			"componentType":5126,
			"count":439,
			"type":"VEC3"
		},
		{
			"bufferView":12,
			"componentType":5123,
			"count":558,
			"type":"SCALAR"
		},
		{
			"bufferView":13,
			"componentType":5126,
			"count":34,
			"max":[
				-0.8927539587020874,
				5.986506462097168,
				0.8045051097869873
			],
			"min":[
				-1.4562872648239136,
				1.5221118927001953,
				0.33836448192596436
			],
			"type":"VEC3"
		},
		{
			"bufferView":14,
			"componentType":5126,
			"count":34,
			"type":"VEC3"
		},
		{
			"bufferView":15,
			"componentType":5126,
			"count":34,
			"type":"VEC2"
		},
		{
			"bufferView":16,
			"componentType":5123,
			"count":36,
			"type":"SCALAR"
		},
		{
			"bufferView":17,
			"componentType":5126,
			"count":242,
			"max":[
				1.2764233350753784,
				2.1104984283447266,
				1.5464673042297363
			],
			"min":[
				-1.549789309501648,
				-2.532583236694336,
				0.6788424253463745
			],
			"type":"VEC3"
		},
		{
			"bufferView":18,
			"componentType":5126,
			"count":242,
			"type":"VEC3"
		},
		{
			"bufferView":19,
			"componentType":5126,
			"count":242,
			"type":"VEC2"
		},
		{
			"bufferView":20,
			"componentType":5126,
			"count":439,
			"max":[
				0.6410323977470398,
				0.6319399476051331,
				1.2199774980545044
			],
			"min":[
				-0.6410323977470398,
				-0.6319399476051331,
				0
			],
			"type":"VEC3"
		},
		{
			"bufferView":21,
			"componentType":5126,
			"count":439,
			"type":"VEC3"
		},
		{
			"bufferView":22,
			"componentType":5126,
			"count":34,
			"max":[
				-0.8927539587020874,
				5.986506462097168,
				0.8045051097869873
			],
			"min":[
				-1.4562872648239136,
				1.5221118927001953,
				0.33836448192596436
			],
			"type":"VEC3"
		},
		{
			"bufferView":23,
			"componentType":5126,
			"count":34,
			"type":"VEC3"
		},
		{
			"bufferView":24,
			"componentType":5126,
			"count":34,
			"type":"VEC2"
		},
		{
			"bufferView":25,
			"componentType":5126,
			"count":439,
			"max":[
				0.6410323977470398,
				0.6319399476051331,
				1.2199774980545044
			],
			"min":[
				-0.6410323977470398,
				-0.6319399476051331,
				0
			],
			"type":"VEC3"
		},
		{
			"bufferView":26,
			"componentType":5126,
			"count":439,
			"type":"VEC3"
		},
		{
			"bufferView":27,
			"componentType":5126,
			"count":266,
			"max":[
				1.4131063222885132,
				2.2692623138427734,
				0.8676248788833618
			],
			"min":[
				-1.598676085472107,
				-2.5914859771728516,
				0
			],
			"type":"VEC3"
		},
		{
			"bufferView":28,
			"componentType":5126,
			"count":266,
			"type":"VEC3"
		},
		{
			"bufferView":29,
			"componentType":5126,
			"count":266,
			"type":"VEC2"
		},
		{
			"bufferView":30,
			"componentType":5123,
			"count":378,
			"type":"SCALAR"
		},
		{
			"bufferView":31,
			"componentType":5126,
			"count":439,
			"max":[
				0.6410323977470398,
				0.6319399476051331,
				1.2199774980545044
			],
			"min":[
				-0.6410323977470398,
				-0.6319399476051331,
				0
			],
			"type":"VEC3"
		},
		{
			"bufferView":32,
			"componentType":5126,
			"count":439,
			"type":"VEC3"
		},
		{
			"bufferView":33,
			"componentType":5126,
			"count":278,
			"max":[
				1.4131063222885132,
				5.986506462097168,
				0.8676248788833618
			],
			"min":[
				-1.4562872648239136,
				-2.5914859771728516,
				0
			],
			"type":"VEC3"
		},
		{
			"bufferView":34,
			"componentType":5126,
			"count":278,
			"type":"VEC3"
		},
		{
			"bufferView":35,
			"componentType":5126,
			"count":278,
			"type":"VEC2"
		},
		{
			"bufferView":36,
			"componentType":5123,
			"count":378,
			"type":"SCALAR"
		},
		{
			"bufferView":37,
			"componentType":5126,
			"count":439,
			"max":[
				0.6410323977470398,
				0.6319399476051331,
				1.2199774980545044
			],
			"min":[
				-0.6410323977470398,
				-0.6319399476051331,
				0
			],
			"type":"VEC3"
		},
		{
			"bufferView":38,
			"componentType":5126,
			"count":439,
			"type":"VEC3"
		},
		{
			"bufferView":39,
			"componentType":5126,
			"count":278,
			"max":[
				1.4131063222885132,
				5.986506462097168,
				0.8676248788833618
			],
			"min":[
				-1.4562872648239136,
				-2.5914859771728516,
				0
			],
			"type":"VEC3"
		},
		{
			"bufferView":40,
			"componentType":5126,
			"count":278,
			"type":"VEC3"
		},
		{
			"bufferView":41,
			"componentType":5126,
			"count":278,
			"type":"VEC2"
		},
		{
			"bufferView":42,
			"componentType":5126,
			"count":439,
			"max":[
				0.6410323977470398,
				0.6319399476051331,
				1.2199774980545044
			],
			"min":[
				-0.6410323977470398,
				-0.6319399476051331,
				0
			],
			"type":"VEC3"
		},
		{
			"bufferView":43,
			"componentType":5126,
			"count":439,
			"type":"VEC3"
		},
		{
			"bufferView":44,
			"componentType":5126,
			"count":278,
			"max":[
				1.4131063222885132,
				5.986506462097168,
				0.8676248788833618
			],
			"min":[
				-1.4562872648239136,
				-2.5914859771728516,
				0
			],
			"type":"VEC3"
		},
		{
			"bufferView":45,
			"componentType":5126,
			"count":278,
			"type":"VEC3"
		},
		{
			"bufferView":46,
			"componentType":5126,
			"count":278,
			"type":"VEC2"
		},
		{
			"bufferView":47,
			"componentType":5126,
			"count":439,
			"max":[
				0.6410323977470398,
				0.6319399476051331,
				1.2199774980545044
			],
			"min":[
				-0.6410323977470398,
				-0.6319399476051331,
				0
			],
			"type":"VEC3"
		},
		{
			"bufferView":48,
			"componentType":5126,
			"count":439,
			"type":"VEC3"
		},
		{
			"bufferView":49,
			"componentType":5126,
			"count":278,
			"max":[
				1.4131063222885132,
				5.986506462097168,
				0.8676248788833618
			],
			"min":[
				-1.4562872648239136,
				-2.5914859771728516,
				0
			],
			"type":"VEC3"
		},
		{
			"bufferView":50,
			"componentType":5126,
			"count":278,
			"type":"VEC3"
		},
		{
			"bufferView":51,
			"componentType":5126,
			"count":278,
			"type":"VEC2"
		},
		{
			"bufferView":52,
			"componentType":5126,
			"count":439,
			"max":[
				0.6410323977470398,
				0.6319399476051331,
				1.2199774980545044
			],
			"min":[
				-0.6410323977470398,
				-0.6319399476051331,
				0
			],
			"type":"VEC3"
		},
		{
			"bufferView":53,
			"componentType":5126,
			"count":439,
			"type":"VEC3"
		},
		{
			"bufferView":54,
			"componentType":5126,
			"count":278,
			"max":[
				1.4131063222885132,
				5.986506462097168,
				0.8676248788833618
			],
			"min":[
				-1.4562872648239136,
				-2.5914859771728516,
				0
			],
			"type":"VEC3"
		},
		{
			"bufferView":55,
			"componentType":5126,
			"count":278,
			"type":"VEC3"
		},
		{
			"bufferView":56,
			"componentType":5126,
			"count":278,
			"type":"VEC2"
		},
		{
			"bufferView":57,
			"componentType":5126,
			"count":439,
			"max":[
				0.6410323977470398,
				0.6319399476051331,
				1.2199774980545044
			],
			"min":[
				-0.6410323977470398,
				-0.6319399476051331,
				0
			],
			"type":"VEC3"
		},
		{
			"bufferView":58,
			"componentType":5126,
			"count":439,
			"type":"VEC3"
		},
		{
			"bufferView":59,
			"componentType":5126,
			"count":278,
			"max":[
				1.4131063222885132,
				2.5914859771728516,
				0.8676248788833618
			],
			"min":[
				-1.4131063222885132,
				-2.5914859771728516,
				0
			],
			"type":"VEC3"
		},
		{
			"bufferView":60,
			"componentType":5126,
			"count":278,
			"type":"VEC3"
		},
		{
			"bufferView":61,
			"componentType":5126,
			"count":278,
			"type":"VEC2"
		},
		{
			"bufferView":62,
			"componentType":5123,
			"count":378,
			"type":"SCALAR"
		},
		{
			"bufferView":63,
			"componentType":5126,
			"count":439,
			"max":[
				0.6410323977470398,
				0.6319399476051331,
				1.2199774980545044
			],
			"min":[
				-0.6410323977470398,
				-0.6319399476051331,
				0
			],
			"type":"VEC3"
		},
		{
			"bufferView":64,
			"componentType":5126,
			"count":439,
			"type":"VEC3"
		},
		{
			"bufferView":65,
			"componentType":5126,
			"count":278,
			"max":[
				1.4131063222885132,
				2.5914859771728516,
				0.8676248788833618
			],
			"min":[
				-1.4131063222885132,
				-2.5914859771728516,
				0
			],
			"type":"VEC3"
		},
		{
			"bufferView":66,
			"componentType":5126,
			"count":278,
			"type":"VEC3"
		},
		{
			"bufferView":67,
			"componentType":5126,
			"count":278,
			"type":"VEC2"
		},
		{
			"bufferView":68,
			"componentType":5126,
			"count":8,
			"max":[
				8.390796661376953,
				8.80577278137207,
				1.7290842533111572
			],
			"min":[
				-8.390796661376953,
				-8.80577278137207,
				0
			],
			"type":"VEC3"
		},
		{
			"bufferView":69,
			"componentType":5126,
			"count":8,
			"type":"VEC3"
		},
		{
			"bufferView":70,
			"componentType":5123,
			"count":18,
			"type":"SCALAR"
		},
		{
			"bufferView":71,
			"componentType":5126,
			"count":26,
			"max":[
				9.804182052612305,
				11.153382301330566,
				3.570315361022949
			],
			"min":[
				-9.804182052612305,
				-11.153382301330566,
				0
			],
			"type":"VEC3"
		},
		{
			"bufferView":72,
			"componentType":5126,
			"count":26,
			"type":"VEC3"
		},
		{
			"bufferView":73,
			"componentType":5126,
			"count":26,
			"type":"VEC2"
		},
		{
			"bufferView":74,
			"componentType":5123,
			"count":54,
			"type":"SCALAR"
		},
		{
			"bufferView":75,
			"componentType":5126,
			"count":16,
			"max":[
				12.922331809997559,
				23.06088638305664,
				1.708492398262024
			],
			"min":[
				4.4966630935668945,
				-23.06088638305664,
				1.2987574338912964
			],
			"type":"VEC3"
		},
		{
			"bufferView":76,
			"componentType":5126,
			"count":16,
			"type":"VEC3"
		},
		{
			"bufferView":77,
			"componentType":5123,
			"count":24,
			"type":"SCALAR"
		},
		{
			"bufferView":78,
			"componentType":5126,
			"count":94,
			"max":[
				-16.68128776550293,
				40.825626373291016,
				1.7671242952346802
			],
			"min":[
				-42.52595138549805,
				-5.296146869659424,
				0
			],
			"type":"VEC3"
		},
		{
			"bufferView":79,
			"componentType":5126,
			"count":94,
			"type":"VEC3"
		},
		{
			"bufferView":80,
			"componentType":5123,
			"count":132,
			"type":"SCALAR"
		},
		{
			"bufferView":81,
			"componentType":5126,
			"count":24,
			"max":[
				14.671606063842773,
				1.1805830001831055,
				0
			],
			"min":[
				-14.671606063842773,
				-1.1805830001831055,
				0
			],
			"type":"VEC3"
		},
		{
			"bufferView":82,
			"componentType":5126,
			"count":24,
			"type":"VEC3"
		},
		{
			"bufferView":83,
			"componentType":5123,
			"count":48,
			"type":"SCALAR"
		},
		{
			"bufferView":84,
			"componentType":5126,
			"count":107,
			"max":[
				12.772358894348145,
				31.265399932861328,
				1.5598441362380981
			],
			"min":[
				-16.57085418701172,
				28.904233932495117,
				0
			],
			"type":"VEC3"
		},
		{
			"bufferView":85,
			"componentType":5126,
			"count":107,
			"type":"VEC3"
		},
		{
			"bufferView":86,
			"componentType":5123,
			"count":156,
			"type":"SCALAR"
		},
		{
			"bufferView":87,
			"componentType":5126,
			"count":42,
			"max":[
				14.352548599243164,
				18.35028839111328,
				1.147996187210083
			],
			"min":[
				-14.352548599243164,
				-18.35028839111328,
				0
			],
			"type":"VEC3"
		},
		{
			"bufferView":88,
			"componentType":5126,
			"count":42,
			"type":"VEC3"
		},
		{
			"bufferView":89,
			"componentType":5123,
			"count":66,
			"type":"SCALAR"
		},
		{
			"bufferView":90,
			"componentType":5126,
			"count":14,
			"max":[
				3.6969895362854004,
				6.603432655334473,
				2.364071846008301
			],
			"min":[
				-3.6969895362854004,
				-6.603432655334473,
				0
			],
			"type":"VEC3"
		},
		{
			"bufferView":91,
			"componentType":5126,
			"count":14,
			"type":"VEC3"
		},
		{
			"bufferView":92,
			"componentType":5126,
			"count":14,
			"type":"VEC2"
		},
		{
			"bufferView":93,
			"componentType":5123,
			"count":18,
			"type":"SCALAR"
		},
		{
			"bufferView":94,
			"componentType":5126,
			"count":46,
			"max":[
				4.9477996826171875,
				5.221620559692383,
				3.123093366622925
			],
			"min":[
				-4.9477996826171875,
				-5.221620559692383,
				0
			],
			"type":"VEC3"
		},
		{
			"bufferView":95,
			"componentType":5126,
			"count":46,
			"type":"VEC3"
		},
		{
			"bufferView":96,
			"componentType":5123,
			"count":54,
			"type":"SCALAR"
		},
		{
			"bufferView":97,
			"componentType":5126,
			"count":201,
			"max":[
				1173.14208984375,
				1076.42919921875,
				699.6115112304688
			],
			"min":[
				-1173.14208984375,
				-1076.42919921875,
				0
			],
			"type":"VEC3"
		},
		{
			"bufferView":98,
			"componentType":5126,
			"count":201,
			"type":"VEC3"
		},
		{
			"bufferView":99,
			"componentType":5126,
			"count":201,
			"type":"VEC2"
		},
		{
			"bufferView":100,
			"componentType":5123,
			"count":255,
			"type":"SCALAR"
		},
		{
			"bufferView":101,
			"componentType":5126,
			"count":12,
			"max":[
				430.8662109375,
				92.69482421875,
				470.9281921386719
			],
			"min":[
				-430.8662109375,
				-92.69482421875,
				0
			],
			"type":"VEC3"
		},
		{
			"bufferView":102,
			"componentType":5126,
			"count":12,
			"type":"VEC3"
		},
		{
			"bufferView":103,
			"componentType":5126,
			"count":12,
			"type":"VEC2"
		},
		{
			"bufferView":104,
			"componentType":5123,
			"count":12,
			"type":"SCALAR"
		},
		{
			"bufferView":105,
			"componentType":5126,
			"count":40,
			"max":[
				2614.9931640625,
				2436.017333984375,
				470.9281921386719
			],
			"min":[
				-404.96923828125,
				-2436.017333984375,
				0
			],
			"type":"VEC3"
		},
		{
			"bufferView":106,
			"componentType":5126,
			"count":40,
			"type":"VEC3"
		},
		{
			"bufferView":107,
			"componentType":5126,
			"count":40,
			"type":"VEC2"
		},
		{
			"bufferView":108,
			"componentType":5123,
			"count":81,
			"type":"SCALAR"
		},
		{
			"bufferView":109,
			"componentType":5126,
			"count":4,
			"max":[
				50.20886993408203,
				-39.25259017944336,
				1.9277750253677368
			],
			"min":[
				18.35123634338379,
				-48.86815643310547,
				1.9277750253677368
			],
			"type":"VEC3"
		},
		{
			"bufferView":110,
			"componentType":5126,
			"count":4,
			"type":"VEC3"
		},
		{
			"bufferView":111,
			"componentType":5123,
			"count":6,
			"type":"SCALAR"
		},
		{
			"bufferView":112,
			"componentType":5126,
			"count":20,
			"max":[
				50.20886993408203,
				-39.25259017944336,
				1.9277750253677368
			],
			"min":[
				18.35123634338379,
				-48.86815643310547,
				0
			],
			"type":"VEC3"
		},
		{
			"bufferView":113,
			"componentType":5126,
			"count":20,
			"type":"VEC3"
		},
		{
			"bufferView":114,
			"componentType":5123,
			"count":30,
			"type":"SCALAR"
		},
		{
			"bufferView":115,
			"componentType":5126,
			"count":10,
			"max":[
				6.431543827056885,
				-28.13039207458496,
				1.9277750253677368
			],
			"min":[
				-10.244190216064453,
				-52.18990707397461,
				1.9277750253677368
			],
			"type":"VEC3"
		},
		{
			"bufferView":116,
			"componentType":5126,
			"count":10,
			"type":"VEC3"
		},
		{
			"bufferView":117,
			"componentType":5123,
			"count":12,
			"type":"SCALAR"
		},
		{
			"bufferView":118,
			"componentType":5126,
			"count":42,
			"max":[
				6.431543827056885,
				-28.13039207458496,
				1.9277750253677368
			],
			"min":[
				-10.244190216064453,
				-52.18990707397461,
				0
			],
			"type":"VEC3"
		},
		{
			"bufferView":119,
			"componentType":5126,
			"count":42,
			"type":"VEC3"
		},
		{
			"bufferView":120,
			"componentType":5123,
			"count":60,
			"type":"SCALAR"
		},
		{
			"bufferView":121,
			"componentType":5126,
			"count":8,
			"max":[
				-24.152116775512695,
				-22.486698150634766,
				1.9277750253677368
			],
			"min":[
				-34.04975509643555,
				-49.21031951904297,
				1.9277750253677368
			],
			"type":"VEC3"
		},
		{
			"bufferView":122,
			"componentType":5126,
			"count":8,
			"type":"VEC3"
		},
		{
			"bufferView":123,
			"componentType":5123,
			"count":12,
			"type":"SCALAR"
		},
		{
			"bufferView":124,
			"componentType":5126,
			"count":40,
			"max":[
				-24.152116775512695,
				-22.486698150634766,
				1.9277750253677368
			],
			"min":[
				-34.04975509643555,
				-49.21031951904297,
				1.4210854715202004e-14
			],
			"type":"VEC3"
		},
		{
			"bufferView":125,
			"componentType":5126,
			"count":40,
			"type":"VEC3"
		},
		{
			"bufferView":126,
			"componentType":5123,
			"count":60,
			"type":"SCALAR"
		}
	],
	"bufferViews":[
		{
			"buffer":0,
			"byteLength":8652,
			"byteOffset":0,
			"target":34962
		},
		{
			"buffer":0,
			"byteLength":8652,
			"byteOffset":8652,
			"target":34962
		},
		{
			"buffer":0,
			"byteLength":2556,
			"byteOffset":17304,
			"target":34963
		},
		{
			"buffer":0,
			"byteLength":672,
			"byteOffset":19860,
			"target":34962
		},
		{
			"buffer":0,
			"byteLength":672,
			"byteOffset":20532,
			"target":34962
		},
		{
			"buffer":0,
			"byteLength":384,
			"byteOffset":21204,
			"target":34963
		},
		{
			"buffer":0,
			"byteLength":2904,
			"byteOffset":21588,
			"target":34962
		},
		{
			"buffer":0,
			"byteLength":2904,
			"byteOffset":24492,
			"target":34962
		},
		{
			"buffer":0,
			"byteLength":1936,
			"byteOffset":27396,
			"target":34962
		},
		{
			"buffer":0,
			"byteLength":684,
			"byteOffset":29332,
			"target":34963
		},
		{
			"buffer":0,
			"byteLength":5268,
			"byteOffset":30016,
			"target":34962
		},
		{
			"buffer":0,
			"byteLength":5268,
			"byteOffset":35284,
			"target":34962
		},
		{
			"buffer":0,
			"byteLength":1116,
			"byteOffset":40552,
			"target":34963
		},
		{
			"buffer":0,
			"byteLength":408,
			"byteOffset":41668,
			"target":34962
		},
		{
			"buffer":0,
			"byteLength":408,
			"byteOffset":42076,
			"target":34962
		},
		{
			"buffer":0,
			"byteLength":272,
			"byteOffset":42484,
			"target":34962
		},
		{
			"buffer":0,
			"byteLength":72,
			"byteOffset":42756,
			"target":34963
		},
		{
			"buffer":0,
			"byteLength":2904,
			"byteOffset":42828,
			"target":34962
		},
		{
			"buffer":0,
			"byteLength":2904,
			"byteOffset":45732,
			"target":34962
		},
		{
			"buffer":0,
			"byteLength":1936,
			"byteOffset":48636,
			"target":34962
		},
		{
			"buffer":0,
			"byteLength":5268,
			"byteOffset":50572,
			"target":34962
		},
		{
			"buffer":0,
			"byteLength":5268,
			"byteOffset":55840,
			"target":34962
		},
		{
			"buffer":0,
			"byteLength":408,
			"byteOffset":61108,
			"target":34962
		},
		{
			"buffer":0,
			"byteLength":408,
			"byteOffset":61516,
			"target":34962
		},
		{
			"buffer":0,
			"byteLength":272,
			"byteOffset":61924,
			"target":34962
		},
		{
			"buffer":0,
			"byteLength":5268,
			"byteOffset":62196,
			"target":34962
		},
		{
			"buffer":0,
			"byteLength":5268,
			"byteOffset":67464,
			"target":34962
		},
		{
			"buffer":0,
			"byteLength":3192,
			"byteOffset":72732,
			"target":34962
		},
		{
			"buffer":0,
			"byteLength":3192,
			"byteOffset":75924,
			"target":34962
		},
		{
			"buffer":0,
			"byteLength":2128,
			"byteOffset":79116,
			"target":34962
		},
		{
			"buffer":0,
			"byteLength":756,
			"byteOffset":81244,
			"target":34963
		},
		{
			"buffer":0,
			"byteLength":5268,
			"byteOffset":82000,
			"target":34962
		},
		{
			"buffer":0,
			"byteLength":5268,
			"byteOffset":87268,
			"target":34962
		},
		{
			"buffer":0,
			"byteLength":3336,
			"byteOffset":92536,
			"target":34962
		},
		{
			"buffer":0,
			"byteLength":3336,
			"byteOffset":95872,
			"target":34962
		},
		{
			"buffer":0,
			"byteLength":2224,
			"byteOffset":99208,
			"target":34962
		},
		{
			"buffer":0,
			"byteLength":756,
			"byteOffset":101432,
			"target":34963
		},
		{
			"buffer":0,
			"byteLength":5268,
			"byteOffset":102188,
			"target":34962
		},
		{
			"buffer":0,
			"byteLength":5268,
			"byteOffset":107456,
			"target":34962
		},
		{
			"buffer":0,
			"byteLength":3336,
			"byteOffset":112724,
			"target":34962
		},
		{
			"buffer":0,
			"byteLength":3336,
			"byteOffset":116060,
			"target":34962
		},
		{
			"buffer":0,
			"byteLength":2224,
			"byteOffset":119396,
			"target":34962
		},
		{
			"buffer":0,
			"byteLength":5268,
			"byteOffset":121620,
			"target":34962
		},
		{
			"buffer":0,
			"byteLength":5268,
			"byteOffset":126888,
			"target":34962
		},
		{
			"buffer":0,
			"byteLength":3336,
			"byteOffset":132156,
			"target":34962
		},
		{
			"buffer":0,
			"byteLength":3336,
			"byteOffset":135492,
			"target":34962
		},
		{
			"buffer":0,
			"byteLength":2224,
			"byteOffset":138828,
			"target":34962
		},
		{
			"buffer":0,
			"byteLength":5268,
			"byteOffset":141052,
			"target":34962
		},
		{
			"buffer":0,
			"byteLength":5268,
			"byteOffset":146320,
			"target":34962
		},
		{
			"buffer":0,
			"byteLength":3336,
			"byteOffset":151588,
			"target":34962
		},
		{
			"buffer":0,
			"byteLength":3336,
			"byteOffset":154924,
			"target":34962
		},
		{
			"buffer":0,
			"byteLength":2224,
			"byteOffset":158260,
			"target":34962
		},
		{
			"buffer":0,
			"byteLength":5268,
			"byteOffset":160484,
			"target":34962
		},
		{
			"buffer":0,
			"byteLength":5268,
			"byteOffset":165752,
			"target":34962
		},
		{
			"buffer":0,
			"byteLength":3336,
			"byteOffset":171020,
			"target":34962
		},
		{
			"buffer":0,
			"byteLength":3336,
			"byteOffset":174356,
			"target":34962
		},
		{
			"buffer":0,
			"byteLength":2224,
			"byteOffset":177692,
			"target":34962
		},
		{
			"buffer":0,
			"byteLength":5268,
			"byteOffset":179916,
			"target":34962
		},
		{
			"buffer":0,
			"byteLength":5268,
			"byteOffset":185184,
			"target":34962
		},
		{
			"buffer":0,
			"byteLength":3336,
			"byteOffset":190452,
			"target":34962
		},
		{
			"buffer":0,
			"byteLength":3336,
			"byteOffset":193788,
			"target":34962
		},
		{
			"buffer":0,
			"byteLength":2224,
			"byteOffset":197124,
			"target":34962
		},
		{
			"buffer":0,
			"byteLength":756,
			"byteOffset":199348,
			"target":34963
		},
		{
			"buffer":0,
			"byteLength":5268,
			"byteOffset":200104,
			"target":34962
		},
		{
			"buffer":0,
			"byteLength":5268,
			"byteOffset":205372,
			"target":34962
		},
		{
			"buffer":0,
			"byteLength":3336,
			"byteOffset":210640,
			"target":34962
		},
		{
			"buffer":0,
			"byteLength":3336,
			"byteOffset":213976,
			"target":34962
		},
		{
			"buffer":0,
			"byteLength":2224,
			"byteOffset":217312,
			"target":34962
		},
		{
			"buffer":0,
			"byteLength":96,
			"byteOffset":219536,
			"target":34962
		},
		{
			"buffer":0,
			"byteLength":96,
			"byteOffset":219632,
			"target":34962
		},
		{
			"buffer":0,
			"byteLength":36,
			"byteOffset":219728,
			"target":34963
		},
		{
			"buffer":0,
			"byteLength":312,
			"byteOffset":219764,
			"target":34962
		},
		{
			"buffer":0,
			"byteLength":312,
			"byteOffset":220076,
			"target":34962
		},
		{
			"buffer":0,
			"byteLength":208,
			"byteOffset":220388,
			"target":34962
		},
		{
			"buffer":0,
			"byteLength":108,
			"byteOffset":220596,
			"target":34963
		},
		{
			"buffer":0,
			"byteLength":192,
			"byteOffset":220704,
			"target":34962
		},
		{
			"buffer":0,
			"byteLength":192,
			"byteOffset":220896,
			"target":34962
		},
		{
			"buffer":0,
			"byteLength":48,
			"byteOffset":221088,
			"target":34963
		},
		{
			"buffer":0,
			"byteLength":1128,
			"byteOffset":221136,
			"target":34962
		},
		{
			"buffer":0,
			"byteLength":1128,
			"byteOffset":222264,
			"target":34962
		},
		{
			"buffer":0,
			"byteLength":264,
			"byteOffset":223392,
			"target":34963
		},
		{
			"buffer":0,
			"byteLength":288,
			"byteOffset":223656,
			"target":34962
		},
		{
			"buffer":0,
			"byteLength":288,
			"byteOffset":223944,
			"target":34962
		},
		{
			"buffer":0,
			"byteLength":96,
			"byteOffset":224232,
			"target":34963
		},
		{
			"buffer":0,
			"byteLength":1284,
			"byteOffset":224328,
			"target":34962
		},
		{
			"buffer":0,
			"byteLength":1284,
			"byteOffset":225612,
			"target":34962
		},
		{
			"buffer":0,
			"byteLength":312,
			"byteOffset":226896,
			"target":34963
		},
		{
			"buffer":0,
			"byteLength":504,
			"byteOffset":227208,
			"target":34962
		},
		{
			"buffer":0,
			"byteLength":504,
			"byteOffset":227712,
			"target":34962
		},
		{
			"buffer":0,
			"byteLength":132,
			"byteOffset":228216,
			"target":34963
		},
		{
			"buffer":0,
			"byteLength":168,
			"byteOffset":228348,
			"target":34962
		},
		{
			"buffer":0,
			"byteLength":168,
			"byteOffset":228516,
			"target":34962
		},
		{
			"buffer":0,
			"byteLength":112,
			"byteOffset":228684,
			"target":34962
		},
		{
			"buffer":0,
			"byteLength":36,
			"byteOffset":228796,
			"target":34963
		},
		{
			"buffer":0,
			"byteLength":552,
			"byteOffset":228832,
			"target":34962
		},
		{
			"buffer":0,
			"byteLength":552,
			"byteOffset":229384,
			"target":34962
		},
		{
			"buffer":0,
			"byteLength":108,
			"byteOffset":229936,
			"target":34963
		},
		{
			"buffer":0,
			"byteLength":2412,
			"byteOffset":230044,
			"target":34962
		},
		{
			"buffer":0,
			"byteLength":2412,
			"byteOffset":232456,
			"target":34962
		},
		{
			"buffer":0,
			"byteLength":1608,
			"byteOffset":234868,
			"target":34962
		},
		{
			"buffer":0,
			"byteLength":510,
			"byteOffset":236476,
			"target":34963
		},
		{
			"buffer":0,
			"byteLength":144,
			"byteOffset":236988,
			"target":34962
		},
		{
			"buffer":0,
			"byteLength":144,
			"byteOffset":237132,
			"target":34962
		},
		{
			"buffer":0,
			"byteLength":96,
			"byteOffset":237276,
			"target":34962
		},
		{
			"buffer":0,
			"byteLength":24,
			"byteOffset":237372,
			"target":34963
		},
		{
			"buffer":0,
			"byteLength":480,
			"byteOffset":237396,
			"target":34962
		},
		{
			"buffer":0,
			"byteLength":480,
			"byteOffset":237876,
			"target":34962
		},
		{
			"buffer":0,
			"byteLength":320,
			"byteOffset":238356,
			"target":34962
		},
		{
			"buffer":0,
			"byteLength":162,
			"byteOffset":238676,
			"target":34963
		},
		{
			"buffer":0,
			"byteLength":48,
			"byteOffset":238840,
			"target":34962
		},
		{
			"buffer":0,
			"byteLength":48,
			"byteOffset":238888,
			"target":34962
		},
		{
			"buffer":0,
			"byteLength":12,
			"byteOffset":238936,
			"target":34963
		},
		{
			"buffer":0,
			"byteLength":240,
			"byteOffset":238948,
			"target":34962
		},
		{
			"buffer":0,
			"byteLength":240,
			"byteOffset":239188,
			"target":34962
		},
		{
			"buffer":0,
			"byteLength":60,
			"byteOffset":239428,
			"target":34963
		},
		{
			"buffer":0,
			"byteLength":120,
			"byteOffset":239488,
			"target":34962
		},
		{
			"buffer":0,
			"byteLength":120,
			"byteOffset":239608,
			"target":34962
		},
		{
			"buffer":0,
			"byteLength":24,
			"byteOffset":239728,
			"target":34963
		},
		{
			"buffer":0,
			"byteLength":504,
			"byteOffset":239752,
			"target":34962
		},
		{
			"buffer":0,
			"byteLength":504,
			"byteOffset":240256,
			"target":34962
		},
		{
			"buffer":0,
			"byteLength":120,
			"byteOffset":240760,
			"target":34963
		},
		{
			"buffer":0,
			"byteLength":96,
			"byteOffset":240880,
			"target":34962
		},
		{
			"buffer":0,
			"byteLength":96,
			"byteOffset":240976,
			"target":34962
		},
		{
			"buffer":0,
			"byteLength":24,
			"byteOffset":241072,
			"target":34963
		},
		{
			"buffer":0,
			"byteLength":480,
			"byteOffset":241096,
			"target":34962
		},
		{
			"buffer":0,
			"byteLength":480,
			"byteOffset":241576,
			"target":34962
		},
		{
			"buffer":0,
			"byteLength":120,
			"byteOffset":242056,
			"target":34963
		}
	],
	"samplers":[
		{
			"magFilter":9729,
			"minFilter":9987
		}
	],
	"buffers":[
		{
			"byteLength":242176,
			"uri":"BIKF.bin"
		}
	]
}
