{
	"asset":{
		"generator":"Khronos glTF Blender I/O v4.5.49",
		"version":"2.0"
	},
	"scene":0,
	"scenes":[
		{
			"name":"Scene",
			"nodes":[
				2,
				6,
				10
			]
		}
	],
	"nodes":[
		{
			"mesh":0,
			"name":"Mesh_638",
			"translation":[
				3.0517578125e-05,
				0,
				3.0517578125e-05
			]
		},
		{
			"mesh":1,
			"name":"Mesh_639",
			"translation":[
				3.0517578125e-05,
				0,
				3.0517578125e-05
			]
		},
		{
			"children":[
				0,
				1
			],
			"name":"Building Terminal 1",
			"scale":[
				0.10000001639127731,
				0.15000003576278687,
				0.10000001639127731
			],
			"translation":[
				47.26580810546875,
				0,
				47.57830810546875
			]
		},
		{
			"mesh":2,
			"name":"Mesh_1093",
			"translation":[
				3.0517578125e-05,
				0,
				3.0517578125e-05
			]
		},
		{
			"mesh":3,
			"name":"Mesh_1094",
			"translation":[
				3.0517578125e-05,
				0,
				3.0517578125e-05
			]
		},
		{
			"mesh":4,
			"name":"Mesh_1095",
			"translation":[
				3.0517578125e-05,
				0,
				3.0517578125e-05
			]
		},
		{
			"children":[
				3,
				4,
				5
			],
			"name":"Building Terminal 2",
			"scale":[
				0.10000001639127731,
				0.15000003576278687,
				0.10000001639127731
			],
			"translation":[
				47.26580810546875,
				0,
				47.57830810546875
			]
		},
		{
			"mesh":5,
			"name":"Mesh_1306",
			"translation":[
				3.0517578125e-05,
				0,
				3.0517578125e-05
			]
		},
		{
			"mesh":6,
			"name":"Mesh_1307",
			"translation":[
				3.0517578125e-05,
				0,
				3.0517578125e-05
			]
		},
		{
			"mesh":7,
			"name":"Mesh_1308",
			"translation":[
				3.0517578125e-05,
				0,
				3.0517578125e-05
			]
		},
		{
			"children":[
				7,
				8,
				9
			],
			"name":"Building Terminal 2.001",
			"scale":[
				0.10000001639127731,
				0.15000003576278687,
				0.10000001639127731
			],
			"translation":[
				47.26580810546875,
				0,
				47.57830810546875
			]
		}
	],
	"materials":[
		{
			"name":"PAVING_STONE",
			"normalTexture":{
				"index":0
			},
			"occlusionTexture":{
				"index":1
			},
			"pbrMetallicRoughness":{
				"baseColorTexture":{
					"index":2
				},
				"metallicRoughnessTexture":{
					"index":1
		    },
		    "baseColorFactor": [
		      1.0,
		      1.0,
		      1.0,
		      1.0
		    ],
		    "roughnessFactor": 0.8
		  },
		  "emissiveFactor": [
		    0.01,
		    0.009,
		    0.006
		  ]
		},
		{
			"name":"STEEL",
			"normalTexture":{
				"index":3
			},
			"occlusionTexture":{
				"index":4
			},
			"pbrMetallicRoughness":{
				"baseColorTexture":{
					"index":5
				},
				"metallicRoughnessTexture":{
					"index":4
		    },
		    "baseColorFactor": [
		      1.0,
		      1.0,
		      1.0,
		      1.0
		    ],
		    "roughnessFactor": 0.8
		  },
		  "emissiveFactor": [
		    0.01,
		    0.009,
		    0.006
		  ]
		},
		{
			"name":"TextureAtlas d84a9c87",
			"pbrMetallicRoughness":{
				"baseColorTexture":{
					"index":6
				}
			}
		}
	],
	"meshes":[
		{
			"name":"Mesh_638",
			"primitives":[
				{
					"attributes":{
						"POSITION":0,
						"NORMAL":1,
						"TEXCOORD_0":2,
						"COLOR_0":3,
						"COLOR_1":4
					},
					"indices":5,
					"material":0
				}
			]
		},
		{
			"name":"Mesh_639",
			"primitives":[
				{
					"attributes":{
						"POSITION":6,
						"NORMAL":7,
						"TEXCOORD_0":8,
						"COLOR_0":9,
						"COLOR_1":10
					},
					"indices":11,
					"material":1
				}
			]
		},
		{
			"name":"Mesh_1093",
			"primitives":[
				{
					"attributes":{
						"POSITION":12,
						"NORMAL":13,
						"TEXCOORD_0":14,
						"COLOR_0":15,
						"COLOR_1":16
					},
					"indices":17,
					"material":1
				}
			]
		},
		{
			"name":"Mesh_1094",
			"primitives":[
				{
					"attributes":{
						"POSITION":18,
						"NORMAL":19,
						"TEXCOORD_0":20,
						"COLOR_0":21,
						"COLOR_1":22
					},
					"indices":23,
					"material":0
				}
			]
		},
		{
			"name":"Mesh_1095",
			"primitives":[
				{
					"attributes":{
						"POSITION":24,
						"NORMAL":25,
						"TEXCOORD_0":26
					},
					"indices":27,
					"material":2
				}
			]
		},
		{
			"name":"Mesh_1306",
			"primitives":[
				{
					"attributes":{
						"POSITION":28,
						"NORMAL":29,
						"TEXCOORD_0":30,
						"COLOR_0":31,
						"COLOR_1":32
					},
					"indices":33,
					"material":1
				}
			]
		},
		{
			"name":"Mesh_1307",
			"primitives":[
				{
					"attributes":{
						"POSITION":34,
						"NORMAL":35,
						"TEXCOORD_0":36,
						"COLOR_0":37,
						"COLOR_1":38
					},
					"indices":39,
					"material":0
				}
			]
		},
		{
			"name":"Mesh_1308",
			"primitives":[
				{
					"attributes":{
						"POSITION":40,
						"NORMAL":41,
						"TEXCOORD_0":42
					},
					"indices":43,
					"material":2
				}
			]
		}
	],
	"textures":[
		{
			"sampler":0,
			"source":0
		},
		{
			"sampler":0,
			"source":1
		},
		{
			"sampler":0,
			"source":2
		},
		{
			"sampler":0,
			"source":3
		},
		{
			"sampler":0,
			"source":4
		},
		{
			"sampler":0,
			"source":5
		},
		{
			"sampler":1,
			"source":6
		}
	],
	"images":[
		{
			"mimeType":"image/jpeg",
			"name":"Image_24",
			"uri":"Image_24.jpg"
		},
		{
			"mimeType":"image/jpeg",
			"name":"Image_23",
			"uri":"Image_23.jpg"
		},
		{
			"mimeType":"image/jpeg",
			"name":"Image_3",
			"uri":"Image_3.jpg"
		},
		{
			"mimeType":"image/jpeg",
			"name":"Image_30",
			"uri":"Image_30.jpg"
		},
		{
			"mimeType":"image/png",
			"name":"Image_29-Image_3",
			"uri":"Image_29-Image_3.png"
		},
		{
			"mimeType":"image/jpeg",
			"name":"Image_28",
			"uri":"Image_28.jpg"
		},
		{
			"mimeType":"image/png",
			"name":"Image_18",
			"uri":"Image_18.png"
		}
	],
	"accessors":[
		{
			"bufferView":0,
			"componentType":5126,
			"count":1671,
			"max":[
				-254.4429931640625,
				7.5,
				824.4000244140625
			],
			"min":[
				-436.5429992675781,
				-0.009999999776482582,
				426.5870056152344
			],
			"type":"VEC3"
		},
		{
			"bufferView":1,
			"componentType":5126,
			"count":1671,
			"type":"VEC3"
		},
		{
			"bufferView":2,
			"componentType":5126,
			"count":1671,
			"type":"VEC2"
		},
		{
			"bufferView":3,
			"componentType":5121,
			"count":1671,
			"normalized":true,
			"type":"VEC4"
		},
		{
			"bufferView":4,
			"componentType":5123,
			"count":1671,
			"normalized":true,
			"type":"VEC4"
		},
		{
			"bufferView":5,
			"componentType":5123,
			"count":1671,
			"type":"SCALAR"
		},
		{
			"bufferView":6,
			"componentType":5126,
			"count":501,
			"max":[
				-254.4429931640625,
				7.5,
				824.4000244140625
			],
			"min":[
				-436.5429992675781,
				7.5,
				426.5870056152344
			],
			"type":"VEC3"
		},
		{
			"bufferView":7,
			"componentType":5126,
			"count":501,
			"type":"VEC3"
		},
		{
			"bufferView":8,
			"componentType":5126,
			"count":501,
			"type":"VEC2"
		},
		{
			"bufferView":9,
			"componentType":5121,
			"count":501,
			"normalized":true,
			"type":"VEC4"
		},
		{
			"bufferView":10,
			"componentType":5123,
			"count":501,
			"normalized":true,
			"type":"VEC4"
		},
		{
			"bufferView":11,
			"componentType":5123,
			"count":501,
			"type":"SCALAR"
		},
		{
			"bufferView":12,
			"componentType":5126,
			"count":222,
			"max":[
				-249.53599548339844,
				7.5,
				467.2829895019531
			],
			"min":[
				-466.89300537109375,
				7.5,
				141.77499389648438
			],
			"type":"VEC3"
		},
		{
			"bufferView":13,
			"componentType":5126,
			"count":222,
			"type":"VEC3"
		},
		{
			"bufferView":14,
			"componentType":5126,
			"count":222,
			"type":"VEC2"
		},
		{
			"bufferView":15,
			"componentType":5121,
			"count":222,
			"normalized":true,
			"type":"VEC4"
		},
		{
			"bufferView":16,
			"componentType":5123,
			"count":222,
			"normalized":true,
			"type":"VEC4"
		},
		{
			"bufferView":17,
			"componentType":5123,
			"count":222,
			"type":"SCALAR"
		},
		{
			"bufferView":18,
			"componentType":5126,
			"count":468,
			"max":[
				-249.53599548339844,
				7.5,
				467.2829895019531
			],
			"min":[
				-466.89300537109375,
				0,
				141.77499389648438
			],
			"type":"VEC3"
		},
		{
			"bufferView":19,
			"componentType":5126,
			"count":468,
			"type":"VEC3"
		},
		{
			"bufferView":20,
			"componentType":5126,
			"count":468,
			"type":"VEC2"
		},
		{
			"bufferView":21,
			"componentType":5121,
			"count":468,
			"normalized":true,
			"type":"VEC4"
		},
		{
			"bufferView":22,
			"componentType":5123,
			"count":468,
			"normalized":true,
			"type":"VEC4"
		},
		{
			"bufferView":23,
			"componentType":5123,
			"count":468,
			"type":"SCALAR"
		},
		{
			"bufferView":24,
			"componentType":5126,
			"count":12,
			"max":[
				-432.3305969238281,
				7,
				176.72817993164062
			],
			"min":[
				-433.2450256347656,
				0,
				173.96705627441406
			],
			"type":"VEC3"
		},
		{
			"bufferView":25,
			"componentType":5126,
			"count":12,
			"type":"VEC3"
		},
		{
			"bufferView":26,
			"componentType":5126,
			"count":12,
			"type":"VEC2"
		},
		{
			"bufferView":27,
			"componentType":5123,
			"count":12,
			"type":"SCALAR"
		},
		{
			"bufferView":28,
			"componentType":5126,
			"count":1227,
			"max":[
				-268.5039978027344,
				54,
				156.0240020751953
			],
			"min":[
				-604.781982421875,
				7.5,
				-475.7829895019531
			],
			"type":"VEC3"
		},
		{
			"bufferView":29,
			"componentType":5126,
			"count":1227,
			"type":"VEC3"
		},
		{
			"bufferView":30,
			"componentType":5126,
			"count":1227,
			"type":"VEC2"
		},
		{
			"bufferView":31,
			"componentType":5121,
			"count":1227,
			"normalized":true,
			"type":"VEC4"
		},
		{
			"bufferView":32,
			"componentType":5123,
			"count":1227,
			"normalized":true,
			"type":"VEC4"
		},
		{
			"bufferView":33,
			"componentType":5123,
			"count":1227,
			"type":"SCALAR"
		},
		{
			"bufferView":34,
			"componentType":5126,
			"count":1020,
			"max":[
				-268.5039978027344,
				54,
				156.0240020751953
			],
			"min":[
				-604.781982421875,
				0,
				-475.7829895019531
			],
			"type":"VEC3"
		},
		{
			"bufferView":35,
			"componentType":5126,
			"count":1020,
			"type":"VEC3"
		},
		{
			"bufferView":36,
			"componentType":5126,
			"count":1020,
			"type":"VEC2"
		},
		{
			"bufferView":37,
			"componentType":5121,
			"count":1020,
			"normalized":true,
			"type":"VEC4"
		},
		{
			"bufferView":38,
			"componentType":5123,
			"count":1020,
			"normalized":true,
			"type":"VEC4"
		},
		{
			"bufferView":39,
			"componentType":5123,
			"count":1020,
			"type":"SCALAR"
		},
		{
			"bufferView":40,
			"componentType":5126,
			"count":6,
			"max":[
				-552.1746215820312,
				2,
				-72.59564208984375
			],
			"min":[
				-552.4961547851562,
				0,
				-73.54255676269531
			],
			"type":"VEC3"
		},
		{
			"bufferView":41,
			"componentType":5126,
			"count":6,
			"type":"VEC3"
		},
		{
			"bufferView":42,
			"componentType":5126,
			"count":6,
			"type":"VEC2"
		},
		{
			"bufferView":43,
			"componentType":5123,
			"count":6,
			"type":"SCALAR"
		}
	],
	"bufferViews":[
		{
			"buffer":0,
			"byteLength":20052,
			"byteOffset":0,
			"target":34962
		},
		{
			"buffer":0,
			"byteLength":20052,
			"byteOffset":20052,
			"target":34962
		},
		{
			"buffer":0,
			"byteLength":13368,
			"byteOffset":40104,
			"target":34962
		},
		{
			"buffer":0,
			"byteLength":6684,
			"byteOffset":53472,
			"target":34962
		},
		{
			"buffer":0,
			"byteLength":13368,
			"byteOffset":60156,
			"target":34962
		},
		{
			"buffer":0,
			"byteLength":3342,
			"byteOffset":73524,
			"target":34963
		},
		{
			"buffer":0,
			"byteLength":6012,
			"byteOffset":76868,
			"target":34962
		},
		{
			"buffer":0,
			"byteLength":6012,
			"byteOffset":82880,
			"target":34962
		},
		{
			"buffer":0,
			"byteLength":4008,
			"byteOffset":88892,
			"target":34962
		},
		{
			"buffer":0,
			"byteLength":2004,
			"byteOffset":92900,
			"target":34962
		},
		{
			"buffer":0,
			"byteLength":4008,
			"byteOffset":94904,
			"target":34962
		},
		{
			"buffer":0,
			"byteLength":1002,
			"byteOffset":98912,
			"target":34963
		},
		{
			"buffer":0,
			"byteLength":2664,
			"byteOffset":99916,
			"target":34962
		},
		{
			"buffer":0,
			"byteLength":2664,
			"byteOffset":102580,
			"target":34962
		},
		{
			"buffer":0,
			"byteLength":1776,
			"byteOffset":105244,
			"target":34962
		},
		{
			"buffer":0,
			"byteLength":888,
			"byteOffset":107020,
			"target":34962
		},
		{
			"buffer":0,
			"byteLength":1776,
			"byteOffset":107908,
			"target":34962
		},
		{
			"buffer":0,
			"byteLength":444,
			"byteOffset":109684,
			"target":34963
		},
		{
			"buffer":0,
			"byteLength":5616,
			"byteOffset":110128,
			"target":34962
		},
		{
			"buffer":0,
			"byteLength":5616,
			"byteOffset":115744,
			"target":34962
		},
		{
			"buffer":0,
			"byteLength":3744,
			"byteOffset":121360,
			"target":34962
		},
		{
			"buffer":0,
			"byteLength":1872,
			"byteOffset":125104,
			"target":34962
		},
		{
			"buffer":0,
			"byteLength":3744,
			"byteOffset":126976,
			"target":34962
		},
		{
			"buffer":0,
			"byteLength":936,
			"byteOffset":130720,
			"target":34963
		},
		{
			"buffer":0,
			"byteLength":144,
			"byteOffset":131656,
			"target":34962
		},
		{
			"buffer":0,
			"byteLength":144,
			"byteOffset":131800,
			"target":34962
		},
		{
			"buffer":0,
			"byteLength":96,
			"byteOffset":131944,
			"target":34962
		},
		{
			"buffer":0,
			"byteLength":24,
			"byteOffset":132040,
			"target":34963
		},
		{
			"buffer":0,
			"byteLength":14724,
			"byteOffset":132064,
			"target":34962
		},
		{
			"buffer":0,
			"byteLength":14724,
			"byteOffset":146788,
			"target":34962
		},
		{
			"buffer":0,
			"byteLength":9816,
			"byteOffset":161512,
			"target":34962
		},
		{
			"buffer":0,
			"byteLength":4908,
			"byteOffset":171328,
			"target":34962
		},
		{
			"buffer":0,
			"byteLength":9816,
			"byteOffset":176236,
			"target":34962
		},
		{
			"buffer":0,
			"byteLength":2454,
			"byteOffset":186052,
			"target":34963
		},
		{
			"buffer":0,
			"byteLength":12240,
			"byteOffset":188508,
			"target":34962
		},
		{
			"buffer":0,
			"byteLength":12240,
			"byteOffset":200748,
			"target":34962
		},
		{
			"buffer":0,
			"byteLength":8160,
			"byteOffset":212988,
			"target":34962
		},
		{
			"buffer":0,
			"byteLength":4080,
			"byteOffset":221148,
			"target":34962
		},
		{
			"buffer":0,
			"byteLength":8160,
			"byteOffset":225228,
			"target":34962
		},
		{
			"buffer":0,
			"byteLength":2040,
			"byteOffset":233388,
			"target":34963
		},
		{
			"buffer":0,
			"byteLength":72,
			"byteOffset":235428,
			"target":34962
		},
		{
			"buffer":0,
			"byteLength":72,
			"byteOffset":235500,
			"target":34962
		},
		{
			"buffer":0,
			"byteLength":48,
			"byteOffset":235572,
			"target":34962
		},
		{
			"buffer":0,
			"byteLength":12,
			"byteOffset":235620,
			"target":34963
		}
	],
	"samplers":[
		{
			"magFilter":9729,
			"minFilter":9987
		},
		{
			"magFilter":9729,
			"minFilter":9987,
			"wrapS":33071,
			"wrapT":33071
		}
	],
	"buffers":[
		{
			"byteLength":235632,
			"uri":"KDCA.bin"
		}
	]
}
