{
	"asset":{
		"generator":"Khronos glTF Blender I/O v4.5.49",
		"version":"2.0"
	},
	"scene":0,
	"scenes":[
		{
			"name":"Scene",
			"nodes":[
				2,
				5,
				8,
				11,
				14,
				17
			]
		}
	],
	"nodes":[
		{
			"mesh":0,
			"name":"Mesh_105",
			"translation":[
				0,
				0,
				6.103515625e-05
			]
		},
		{
			"mesh":1,
			"name":"Mesh_106",
			"translation":[
				0,
				0,
				6.103515625e-05
			]
		},
		{
			"children":[
				0,
				1
			],
			"name":"Building Concourse B",
			"scale":[
				0.10000002384185791,
				0.20000004768371582,
				0.10000002384185791
			],
			"translation":[
				5.2239580154418945,
				0,
				-73.94624328613281
			]
		},
		{
			"mesh":2,
			"name":"Mesh_114",
			"translation":[
				0,
				0,
				6.103515625e-05
			]
		},
		{
			"mesh":3,
			"name":"Mesh_115",
			"translation":[
				0,
				0,
				6.103515625e-05
			]
		},
		{
			"children":[
				3,
				4
			],
			"name":"Building Concourse D",
			"scale":[
				0.10000002384185791,
				0.20000004768371582,
				0.10000002384185791
			],
			"translation":[
				5.2239580154418945,
				0,
				-73.94624328613281
			]
		},
		{
			"mesh":4,
			"name":"Mesh_163",
			"translation":[
				0,
				0,
				6.103515625e-05
			]
		},
		{
			"mesh":5,
			"name":"Mesh_164",
			"translation":[
				0,
				0,
				6.103515625e-05
			]
		},
		{
			"children":[
				6,
				7
			],
			"name":"Building Concourse E",
			"scale":[
				0.10000002384185791,
				0.20000004768371582,
				0.10000002384185791
			],
			"translation":[
				5.2239580154418945,
				0,
				-73.94624328613281
			]
		},
		{
			"mesh":6,
			"name":"Mesh_219",
			"translation":[
				0,
				0,
				6.103515625e-05
			]
		},
		{
			"mesh":7,
			"name":"Mesh_221",
			"translation":[
				0,
				0,
				6.103515625e-05
			]
		},
		{
			"children":[
				9,
				10
			],
			"name":"Building Main Terminal Building",
			"scale":[
				0.10000002384185791,
				0.20000004768371582,
				0.10000002384185791
			],
			"translation":[
				5.2239580154418945,
				0,
				-73.94624328613281
			]
		},
		{
			"mesh":8,
			"name":"Mesh_534",
			"translation":[
				0,
				0,
				6.103515625e-05
			]
		},
		{
			"mesh":9,
			"name":"Mesh_535",
			"translation":[
				0,
				0,
				6.103515625e-05
			]
		},
		{
			"children":[
				12,
				13
			],
			"name":"Building Concourse A",
			"scale":[
				0.10000002384185791,
				0.20000004768371582,
				0.10000002384185791
			],
			"translation":[
				5.2239580154418945,
				0,
				-73.94624328613281
			]
		},
		{
			"mesh":10,
			"name":"Mesh_571",
			"translation":[
				0,
				0,
				6.103515625e-05
			]
		},
		{
			"mesh":11,
			"name":"Mesh_572",
			"translation":[
				0,
				0,
				6.103515625e-05
			]
		},
		{
			"children":[
				15,
				16
			],
			"name":"Building Concourse C",
			"scale":[
				0.10000002384185791,
				0.20000004768371582,
				0.10000002384185791
			],
			"translation":[
				5.2239580154418945,
				0,
				-73.94624328613281
			]
		}
	],
	"materials":[
		{
			"name":"SAND",
			"normalTexture":{
				"index":0
			},
			"occlusionTexture":{
				"index":1
			},
			"pbrMetallicRoughness":{
				"baseColorTexture":{
					"index":2
				},
				"metallicRoughnessTexture":{
					"index":1
				}
			}
		}
	],
	"meshes":[
		{
			"name":"Mesh_105",
			"primitives":[
				{
					"attributes":{
						"POSITION":0,
						"NORMAL":1,
						"TEXCOORD_0":2,
						"COLOR_0":3,
						"COLOR_1":4
					},
					"indices":5,
					"material":0
				}
			]
		},
		{
			"name":"Mesh_106",
			"primitives":[
				{
					"attributes":{
						"POSITION":6,
						"NORMAL":7,
						"TEXCOORD_0":8,
						"COLOR_0":9,
						"COLOR_1":10
					},
					"indices":11,
					"material":0
				}
			]
		},
		{
			"name":"Mesh_114",
			"primitives":[
				{
					"attributes":{
						"POSITION":12,
						"NORMAL":13,
						"TEXCOORD_0":14,
						"COLOR_0":15,
						"COLOR_1":16
					},
					"indices":17,
					"material":0
				}
			]
		},
		{
			"name":"Mesh_115",
			"primitives":[
				{
					"attributes":{
						"POSITION":18,
						"NORMAL":19,
						"TEXCOORD_0":20,
						"COLOR_0":21,
						"COLOR_1":22
					},
					"indices":23,
					"material":0
				}
			]
		},
		{
			"name":"Mesh_163",
			"primitives":[
				{
					"attributes":{
						"POSITION":24,
						"NORMAL":25,
						"TEXCOORD_0":26,
						"COLOR_0":27,
						"COLOR_1":28
					},
					"indices":29,
					"material":0
				}
			]
		},
		{
			"name":"Mesh_164",
			"primitives":[
				{
					"attributes":{
						"POSITION":30,
						"NORMAL":31,
						"TEXCOORD_0":32,
						"COLOR_0":33,
						"COLOR_1":34
					},
					"indices":35,
					"material":0
				}
			]
		},
		{
			"name":"Mesh_219",
			"primitives":[
				{
					"attributes":{
						"POSITION":36,
						"NORMAL":37,
						"TEXCOORD_0":38,
						"COLOR_0":39,
						"COLOR_1":40
					},
					"indices":41,
					"material":0
				}
			]
		},
		{
			"name":"Mesh_221",
			"primitives":[
				{
					"attributes":{
						"POSITION":42,
						"NORMAL":43,
						"TEXCOORD_0":44,
						"COLOR_0":45,
						"COLOR_1":46
					},
					"indices":47,
					"material":0
				}
			]
		},
		{
			"name":"Mesh_534",
			"primitives":[
				{
					"attributes":{
						"POSITION":48,
						"NORMAL":49,
						"TEXCOORD_0":50,
						"COLOR_0":51,
						"COLOR_1":52
					},
					"indices":53,
					"material":0
				}
			]
		},
		{
			"name":"Mesh_535",
			"primitives":[
				{
					"attributes":{
						"POSITION":54,
						"NORMAL":55,
						"TEXCOORD_0":56,
						"COLOR_0":57,
						"COLOR_1":58
					},
					"indices":59,
					"material":0
				}
			]
		},
		{
			"name":"Mesh_571",
			"primitives":[
				{
					"attributes":{
						"POSITION":60,
						"NORMAL":61,
						"TEXCOORD_0":62,
						"COLOR_0":63,
						"COLOR_1":64
					},
					"indices":65,
					"material":0
				}
			]
		},
		{
			"name":"Mesh_572",
			"primitives":[
				{
					"attributes":{
						"POSITION":66,
						"NORMAL":67,
						"TEXCOORD_0":68,
						"COLOR_0":69,
						"COLOR_1":70
					},
					"indices":71,
					"material":0
				}
			]
		}
	],
	"textures":[
		{
			"sampler":0,
			"source":0
		},
		{
			"sampler":0,
			"source":1
		},
		{
			"sampler":0,
			"source":2
		}
	],
	"images":[
		{
			"mimeType":"image/jpeg",
			"name":"Image_6",
			"uri":"Image_6.jpg"
		},
		{
			"mimeType":"image/jpeg",
			"name":"Image_4",
			"uri":"Image_4.jpg"
		},
		{
			"mimeType":"image/jpeg",
			"name":"Image_3",
			"uri":"Image_3.jpg"
		}
	],
	"accessors":[
		{
			"bufferView":0,
			"componentType":5126,
			"count":396,
			"max":[
				462.8609924316406,
				7.5,
				496.5979919433594
			],
			"min":[
				109.76100158691406,
				0,
				292.77801513671875
			],
			"type":"VEC3"
		},
		{
			"bufferView":1,
			"componentType":5126,
			"count":396,
			"type":"VEC3"
		},
		{
			"bufferView":2,
			"componentType":5126,
			"count":396,
			"type":"VEC2"
		},
		{
			"bufferView":3,
			"componentType":5121,
			"count":396,
			"normalized":true,
			"type":"VEC4"
		},
		{
			"bufferView":4,
			"componentType":5123,
			"count":396,
			"normalized":true,
			"type":"VEC4"
		},
		{
			"bufferView":5,
			"componentType":5123,
			"count":396,
			"type":"SCALAR"
		},
		{
			"bufferView":6,
			"componentType":5126,
			"count":192,
			"max":[
				462.8609924316406,
				7.5,
				496.5979919433594
			],
			"min":[
				109.76100158691406,
				7.5,
				292.77801513671875
			],
			"type":"VEC3"
		},
		{
			"bufferView":7,
			"componentType":5126,
			"count":192,
			"type":"VEC3"
		},
		{
			"bufferView":8,
			"componentType":5126,
			"count":192,
			"type":"VEC2"
		},
		{
			"bufferView":9,
			"componentType":5121,
			"count":192,
			"normalized":true,
			"type":"VEC4"
		},
		{
			"bufferView":10,
			"componentType":5123,
			"count":192,
			"normalized":true,
			"type":"VEC4"
		},
		{
			"bufferView":11,
			"componentType":5123,
			"count":192,
			"type":"SCALAR"
		},
		{
			"bufferView":12,
			"componentType":5126,
			"count":261,
			"max":[
				-489.8210144042969,
				7.5,
				-167.6479949951172
			],
			"min":[
				-964.2890014648438,
				7.5,
				-407.5690002441406
			],
			"type":"VEC3"
		},
		{
			"bufferView":13,
			"componentType":5126,
			"count":261,
			"type":"VEC3"
		},
		{
			"bufferView":14,
			"componentType":5126,
			"count":261,
			"type":"VEC2"
		},
		{
			"bufferView":15,
			"componentType":5121,
			"count":261,
			"normalized":true,
			"type":"VEC4"
		},
		{
			"bufferView":16,
			"componentType":5123,
			"count":261,
			"normalized":true,
			"type":"VEC4"
		},
		{
			"bufferView":17,
			"componentType":5123,
			"count":261,
			"type":"SCALAR"
		},
		{
			"bufferView":18,
			"componentType":5126,
			"count":534,
			"max":[
				-489.8210144042969,
				7.5,
				-167.6479949951172
			],
			"min":[
				-964.2890014648438,
				0,
				-407.5690002441406
			],
			"type":"VEC3"
		},
		{
			"bufferView":19,
			"componentType":5126,
			"count":534,
			"type":"VEC3"
		},
		{
			"bufferView":20,
			"componentType":5126,
			"count":534,
			"type":"VEC2"
		},
		{
			"bufferView":21,
			"componentType":5121,
			"count":534,
			"normalized":true,
			"type":"VEC4"
		},
		{
			"bufferView":22,
			"componentType":5123,
			"count":534,
			"normalized":true,
			"type":"VEC4"
		},
		{
			"bufferView":23,
			"componentType":5123,
			"count":534,
			"type":"SCALAR"
		},
		{
			"bufferView":24,
			"componentType":5126,
			"count":246,
			"max":[
				161.44500732421875,
				7.5,
				-348.3900146484375
			],
			"min":[
				-181.75999450683594,
				7.5,
				-750.2360229492188
			],
			"type":"VEC3"
		},
		{
			"bufferView":25,
			"componentType":5126,
			"count":246,
			"type":"VEC3"
		},
		{
			"bufferView":26,
			"componentType":5126,
			"count":246,
			"type":"VEC2"
		},
		{
			"bufferView":27,
			"componentType":5121,
			"count":246,
			"normalized":true,
			"type":"VEC4"
		},
		{
			"bufferView":28,
			"componentType":5123,
			"count":246,
			"normalized":true,
			"type":"VEC4"
		},
		{
			"bufferView":29,
			"componentType":5123,
			"count":246,
			"type":"SCALAR"
		},
		{
			"bufferView":30,
			"componentType":5126,
			"count":504,
			"max":[
				161.44500732421875,
				7.5,
				-348.3900146484375
			],
			"min":[
				-181.75999450683594,
				0,
				-750.2360229492188
			],
			"type":"VEC3"
		},
		{
			"bufferView":31,
			"componentType":5126,
			"count":504,
			"type":"VEC3"
		},
		{
			"bufferView":32,
			"componentType":5126,
			"count":504,
			"type":"VEC2"
		},
		{
			"bufferView":33,
			"componentType":5121,
			"count":504,
			"normalized":true,
			"type":"VEC4"
		},
		{
			"bufferView":34,
			"componentType":5123,
			"count":504,
			"normalized":true,
			"type":"VEC4"
		},
		{
			"bufferView":35,
			"componentType":5123,
			"count":504,
			"type":"SCALAR"
		},
		{
			"bufferView":36,
			"componentType":5126,
			"count":252,
			"max":[
				181.38800048828125,
				7.5,
				739.4639892578125
			],
			"min":[
				-181.89100646972656,
				0,
				321.6319885253906
			],
			"type":"VEC3"
		},
		{
			"bufferView":37,
			"componentType":5126,
			"count":252,
			"type":"VEC3"
		},
		{
			"bufferView":38,
			"componentType":5126,
			"count":252,
			"type":"VEC2"
		},
		{
			"bufferView":39,
			"componentType":5121,
			"count":252,
			"normalized":true,
			"type":"VEC4"
		},
		{
			"bufferView":40,
			"componentType":5123,
			"count":252,
			"normalized":true,
			"type":"VEC4"
		},
		{
			"bufferView":41,
			"componentType":5123,
			"count":252,
			"type":"SCALAR"
		},
		{
			"bufferView":42,
			"componentType":5126,
			"count":84,
			"max":[
				181.38800048828125,
				7.5,
				739.4639892578125
			],
			"min":[
				-181.89100646972656,
				7.5,
				321.6319885253906
			],
			"type":"VEC3"
		},
		{
			"bufferView":43,
			"componentType":5126,
			"count":84,
			"type":"VEC3"
		},
		{
			"bufferView":44,
			"componentType":5126,
			"count":84,
			"type":"VEC2"
		},
		{
			"bufferView":45,
			"componentType":5121,
			"count":84,
			"normalized":true,
			"type":"VEC4"
		},
		{
			"bufferView":46,
			"componentType":5123,
			"count":84,
			"normalized":true,
			"type":"VEC4"
		},
		{
			"bufferView":47,
			"componentType":5123,
			"count":84,
			"type":"SCALAR"
		},
		{
			"bufferView":48,
			"componentType":5126,
			"count":207,
			"max":[
				-109.70999908447266,
				7.5,
				727.843017578125
			],
			"min":[
				-469.2340087890625,
				7.5,
				523.3469848632812
			],
			"type":"VEC3"
		},
		{
			"bufferView":49,
			"componentType":5126,
			"count":207,
			"type":"VEC3"
		},
		{
			"bufferView":50,
			"componentType":5126,
			"count":207,
			"type":"VEC2"
		},
		{
			"bufferView":51,
			"componentType":5121,
			"count":207,
			"normalized":true,
			"type":"VEC4"
		},
		{
			"bufferView":52,
			"componentType":5123,
			"count":207,
			"normalized":true,
			"type":"VEC4"
		},
		{
			"bufferView":53,
			"componentType":5123,
			"count":207,
			"type":"SCALAR"
		},
		{
			"bufferView":54,
			"componentType":5126,
			"count":426,
			"max":[
				-109.70999908447266,
				7.5,
				727.843017578125
			],
			"min":[
				-469.2340087890625,
				0,
				523.3469848632812
			],
			"type":"VEC3"
		},
		{
			"bufferView":55,
			"componentType":5126,
			"count":426,
			"type":"VEC3"
		},
		{
			"bufferView":56,
			"componentType":5126,
			"count":426,
			"type":"VEC2"
		},
		{
			"bufferView":57,
			"componentType":5121,
			"count":426,
			"normalized":true,
			"type":"VEC4"
		},
		{
			"bufferView":58,
			"componentType":5123,
			"count":426,
			"normalized":true,
			"type":"VEC4"
		},
		{
			"bufferView":59,
			"componentType":5123,
			"count":426,
			"type":"SCALAR"
		},
		{
			"bufferView":60,
			"componentType":5126,
			"count":480,
			"max":[
				12.020000457763672,
				7.5,
				385.5719909667969
			],
			"min":[
				-599.531005859375,
				7.5,
				-519.9940185546875
			],
			"type":"VEC3"
		},
		{
			"bufferView":61,
			"componentType":5126,
			"count":480,
			"type":"VEC3"
		},
		{
			"bufferView":62,
			"componentType":5126,
			"count":480,
			"type":"VEC2"
		},
		{
			"bufferView":63,
			"componentType":5121,
			"count":480,
			"normalized":true,
			"type":"VEC4"
		},
		{
			"bufferView":64,
			"componentType":5123,
			"count":480,
			"normalized":true,
			"type":"VEC4"
		},
		{
			"bufferView":65,
			"componentType":5123,
			"count":480,
			"type":"SCALAR"
		},
		{
			"bufferView":66,
			"componentType":5126,
			"count":972,
			"max":[
				12.020000457763672,
				7.5,
				385.5719909667969
			],
			"min":[
				-599.531005859375,
				0,
				-519.9940185546875
			],
			"type":"VEC3"
		},
		{
			"bufferView":67,
			"componentType":5126,
			"count":972,
			"type":"VEC3"
		},
		{
			"bufferView":68,
			"componentType":5126,
			"count":972,
			"type":"VEC2"
		},
		{
			"bufferView":69,
			"componentType":5121,
			"count":972,
			"normalized":true,
			"type":"VEC4"
		},
		{
			"bufferView":70,
			"componentType":5123,
			"count":972,
			"normalized":true,
			"type":"VEC4"
		},
		{
			"bufferView":71,
			"componentType":5123,
			"count":972,
			"type":"SCALAR"
		}
	],
	"bufferViews":[
		{
			"buffer":0,
			"byteLength":4752,
			"byteOffset":0,
			"target":34962
		},
		{
			"buffer":0,
			"byteLength":4752,
			"byteOffset":4752,
			"target":34962
		},
		{
			"buffer":0,
			"byteLength":3168,
			"byteOffset":9504,
			"target":34962
		},
		{
			"buffer":0,
			"byteLength":1584,
			"byteOffset":12672,
			"target":34962
		},
		{
			"buffer":0,
			"byteLength":3168,
			"byteOffset":14256,
			"target":34962
		},
		{
			"buffer":0,
			"byteLength":792,
			"byteOffset":17424,
			"target":34963
		},
		{
			"buffer":0,
			"byteLength":2304,
			"byteOffset":18216,
			"target":34962
		},
		{
			"buffer":0,
			"byteLength":2304,
			"byteOffset":20520,
			"target":34962
		},
		{
			"buffer":0,
			"byteLength":1536,
			"byteOffset":22824,
			"target":34962
		},
		{
			"buffer":0,
			"byteLength":768,
			"byteOffset":24360,
			"target":34962
		},
		{
			"buffer":0,
			"byteLength":1536,
			"byteOffset":25128,
			"target":34962
		},
		{
			"buffer":0,
			"byteLength":384,
			"byteOffset":26664,
			"target":34963
		},
		{
			"buffer":0,
			"byteLength":3132,
			"byteOffset":27048,
			"target":34962
		},
		{
			"buffer":0,
			"byteLength":3132,
			"byteOffset":30180,
			"target":34962
		},
		{
			"buffer":0,
			"byteLength":2088,
			"byteOffset":33312,
			"target":34962
		},
		{
			"buffer":0,
			"byteLength":1044,
			"byteOffset":35400,
			"target":34962
		},
		{
			"buffer":0,
			"byteLength":2088,
			"byteOffset":36444,
			"target":34962
		},
		{
			"buffer":0,
			"byteLength":522,
			"byteOffset":38532,
			"target":34963
		},
		{
			"buffer":0,
			"byteLength":6408,
			"byteOffset":39056,
			"target":34962
		},
		{
			"buffer":0,
			"byteLength":6408,
			"byteOffset":45464,
			"target":34962
		},
		{
			"buffer":0,
			"byteLength":4272,
			"byteOffset":51872,
			"target":34962
		},
		{
			"buffer":0,
			"byteLength":2136,
			"byteOffset":56144,
			"target":34962
		},
		{
			"buffer":0,
			"byteLength":4272,
			"byteOffset":58280,
			"target":34962
		},
		{
			"buffer":0,
			"byteLength":1068,
			"byteOffset":62552,
			"target":34963
		},
		{
			"buffer":0,
			"byteLength":2952,
			"byteOffset":63620,
			"target":34962
		},
		{
			"buffer":0,
			"byteLength":2952,
			"byteOffset":66572,
			"target":34962
		},
		{
			"buffer":0,
			"byteLength":1968,
			"byteOffset":69524,
			"target":34962
		},
		{
			"buffer":0,
			"byteLength":984,
			"byteOffset":71492,
			"target":34962
		},
		{
			"buffer":0,
			"byteLength":1968,
			"byteOffset":72476,
			"target":34962
		},
		{
			"buffer":0,
			"byteLength":492,
			"byteOffset":74444,
			"target":34963
		},
		{
			"buffer":0,
			"byteLength":6048,
			"byteOffset":74936,
			"target":34962
		},
		{
			"buffer":0,
			"byteLength":6048,
			"byteOffset":80984,
			"target":34962
		},
		{
			"buffer":0,
			"byteLength":4032,
			"byteOffset":87032,
			"target":34962
		},
		{
			"buffer":0,
			"byteLength":2016,
			"byteOffset":91064,
			"target":34962
		},
		{
			"buffer":0,
			"byteLength":4032,
			"byteOffset":93080,
			"target":34962
		},
		{
			"buffer":0,
			"byteLength":1008,
			"byteOffset":97112,
			"target":34963
		},
		{
			"buffer":0,
			"byteLength":3024,
			"byteOffset":98120,
			"target":34962
		},
		{
			"buffer":0,
			"byteLength":3024,
			"byteOffset":101144,
			"target":34962
		},
		{
			"buffer":0,
			"byteLength":2016,
			"byteOffset":104168,
			"target":34962
		},
		{
			"buffer":0,
			"byteLength":1008,
			"byteOffset":106184,
			"target":34962
		},
		{
			"buffer":0,
			"byteLength":2016,
			"byteOffset":107192,
			"target":34962
		},
		{
			"buffer":0,
			"byteLength":504,
			"byteOffset":109208,
			"target":34963
		},
		{
			"buffer":0,
			"byteLength":1008,
			"byteOffset":109712,
			"target":34962
		},
		{
			"buffer":0,
			"byteLength":1008,
			"byteOffset":110720,
			"target":34962
		},
		{
			"buffer":0,
			"byteLength":672,
			"byteOffset":111728,
			"target":34962
		},
		{
			"buffer":0,
			"byteLength":336,
			"byteOffset":112400,
			"target":34962
		},
		{
			"buffer":0,
			"byteLength":672,
			"byteOffset":112736,
			"target":34962
		},
		{
			"buffer":0,
			"byteLength":168,
			"byteOffset":113408,
			"target":34963
		},
		{
			"buffer":0,
			"byteLength":2484,
			"byteOffset":113576,
			"target":34962
		},
		{
			"buffer":0,
			"byteLength":2484,
			"byteOffset":116060,
			"target":34962
		},
		{
			"buffer":0,
			"byteLength":1656,
			"byteOffset":118544,
			"target":34962
		},
		{
			"buffer":0,
			"byteLength":828,
			"byteOffset":120200,
			"target":34962
		},
		{
			"buffer":0,
			"byteLength":1656,
			"byteOffset":121028,
			"target":34962
		},
		{
			"buffer":0,
			"byteLength":414,
			"byteOffset":122684,
			"target":34963
		},
		{
			"buffer":0,
			"byteLength":5112,
			"byteOffset":123100,
			"target":34962
		},
		{
			"buffer":0,
			"byteLength":5112,
			"byteOffset":128212,
			"target":34962
		},
		{
			"buffer":0,
			"byteLength":3408,
			"byteOffset":133324,
			"target":34962
		},
		{
			"buffer":0,
			"byteLength":1704,
			"byteOffset":136732,
			"target":34962
		},
		{
			"buffer":0,
			"byteLength":3408,
			"byteOffset":138436,
			"target":34962
		},
		{
			"buffer":0,
			"byteLength":852,
			"byteOffset":141844,
			"target":34963
		},
		{
			"buffer":0,
			"byteLength":5760,
			"byteOffset":142696,
			"target":34962
		},
		{
			"buffer":0,
			"byteLength":5760,
			"byteOffset":148456,
			"target":34962
		},
		{
			"buffer":0,
			"byteLength":3840,
			"byteOffset":154216,
			"target":34962
		},
		{
			"buffer":0,
			"byteLength":1920,
			"byteOffset":158056,
			"target":34962
		},
		{
			"buffer":0,
			"byteLength":3840,
			"byteOffset":159976,
			"target":34962
		},
		{
			"buffer":0,
			"byteLength":960,
			"byteOffset":163816,
			"target":34963
		},
		{
			"buffer":0,
			"byteLength":11664,
			"byteOffset":164776,
			"target":34962
		},
		{
			"buffer":0,
			"byteLength":11664,
			"byteOffset":176440,
			"target":34962
		},
		{
			"buffer":0,
			"byteLength":7776,
			"byteOffset":188104,
			"target":34962
		},
		{
			"buffer":0,
			"byteLength":3888,
			"byteOffset":195880,
			"target":34962
		},
		{
			"buffer":0,
			"byteLength":7776,
			"byteOffset":199768,
			"target":34962
		},
		{
			"buffer":0,
			"byteLength":1944,
			"byteOffset":207544,
			"target":34963
		}
	],
	"samplers":[
		{
			"magFilter":9729,
			"minFilter":9987
		}
	],
	"buffers":[
		{
			"byteLength":209488,
			"uri":"OTBD.bin"
		}
	]
}
